<?xml version="1.0" encoding="UTF-8" standalone="no"?>
<svg
   viewBox="0 0 128 128"
   version="1.1"
   id="svg21226"
   sodipodi:docname="Unity.svg"
   inkscape:version="1.2.2 (732a01da63, 2022-12-09)"
   xmlns:inkscape="http://www.inkscape.org/namespaces/inkscape"
   xmlns:sodipodi="http://sodipodi.sourceforge.net/DTD/sodipodi-0.dtd"
   xmlns="http://www.w3.org/2000/svg"
   xmlns:svg="http://www.w3.org/2000/svg">
  <defs
     id="defs21230" />
  <sodipodi:namedview
     id="namedview21228"
     pagecolor="#ffffff"
     bordercolor="#000000"
     borderopacity="0.25"
     inkscape:showpageshadow="2"
     inkscape:pageopacity="0.0"
     inkscape:pagecheckerboard="0"
     inkscape:deskcolor="#d1d1d1"
     showgrid="false"
     inkscape:zoom="2.8284271"
     inkscape:cx="86.09025"
     inkscape:cy="45.608387"
     inkscape:window-width="1920"
     inkscape:window-height="1129"
     inkscape:window-x="1912"
     inkscape:window-y="-1"
     inkscape:window-maximized="1"
     inkscape:current-layer="g22516" />
  <rect
     style="fill:#000000;stroke-width:0.985508;stop-color:#000000"
     id="rect21401"
     width="130.11832"
     height="128.2437"
     x="0.41077107"
     y="-0.20869221"
     ry="0" />
  <g
     id="g22516"
     transform="matrix(0.62742034,0,0,0.62742034,23.58158,23.845091)"
     style="stroke:none;stroke-opacity:1;stroke-width:1.95562675;stroke-dasharray:none">
    <path
       d="M 64.414,122.93 112.02,95.44 93.773,84.887 75.117,95.664 c -0.322942,0.177399 -0.714839,0.17437 -1.035,-0.008 -0.320038,-0.186616 -0.518602,-0.527554 -0.523,-0.898 V 69.164 c 0,-0.754 0.39,-1.437 1.043,-1.812 L 96.77,54.55 c 0.321387,-0.183456 0.716488,-0.180402 1.035,0.008 0.324,0.18 0.527,0.52 0.53,0.89 V 76.991 L 116.59,87.537 V 32.559 L 114.89439,31.579825 64.42,60.778177 Z"
       id="path21220"
       style="fill:#ffffff;stroke:none;stroke-width:1.95563;stroke-dasharray:none;stroke-opacity:1"
       sodipodi:nodetypes="ccccccscccccccccc" />
    <path
       fill="#4d4d4d"
       d="M 53.738,95.676 35.074,84.886 16.813,95.438 64.414,122.93 66.693111,121.61393 66.762817,60.778177 14.964949,32.559 H 12.25 V 87.535 L 30.504,76.992 V 55.45 c 0.008,-0.37 0.207,-0.71 0.527,-0.89 0.320346,-0.18826 0.716795,-0.191309 1.04,-0.008 l 22.179,12.8 c 0.646054,0.375141 1.043457,1.065928 1.043,1.813 v 25.598 c -0.004,0.37 -0.2,0.71 -0.52,0.902 -0.316,0.188 -0.71,0.191 -1.035,0.012"
       id="path21222"
       style="fill:#ffffff;stroke:none;stroke-width:1.95563;stroke-dasharray:none;stroke-opacity:1"
       sodipodi:nodetypes="cccccccccccccccccc" />
    <path
       fill="gray"
       d="m 68.988,5.07 v 21.086 l 18.657,10.77 c 0.32,0.187 0.511,0.531 0.511,0.906 0,0.371 -0.195,0.711 -0.511,0.898 L 65.469,51.54 c -0.648264,0.367263 -1.441736,0.367263 -2.09,0 L 41.21,38.73 c -0.320472,-0.18526 -0.517319,-0.527835 -0.516,-0.898 -0.0032,-0.372743 0.1938,-0.718558 0.516,-0.906 L 59.862,26.156 V 5.07 L 12.25,32.559 64.416,62.679 116.59,32.559 Z"
       id="path21224"
       style="fill:#ffffff;stroke:none;stroke-width:1.95563;stroke-dasharray:none;stroke-opacity:1"
       sodipodi:nodetypes="cccscccccccccccc" />
  </g>
</svg>
