<?xml version="1.0" encoding="UTF-8" standalone="no"?>
<svg
   width="136"
   zoomAndPan="magnify"
   viewBox="0 0 102 102"
   height="136"
   preserveAspectRatio="xMidYMid"
   version="1.0"
   id="svg829"
   sodipodi:docname="Basics.svg"
   inkscape:version="1.2.2 (732a01da63, 2022-12-09)"
   xmlns:inkscape="http://www.inkscape.org/namespaces/inkscape"
   xmlns:sodipodi="http://sodipodi.sourceforge.net/DTD/sodipodi-0.dtd"
   xmlns="http://www.w3.org/2000/svg"
   xmlns:svg="http://www.w3.org/2000/svg">
  <sodipodi:namedview
     id="namedview831"
     pagecolor="#ffffff"
     bordercolor="#000000"
     borderopacity="0.25"
     inkscape:showpageshadow="2"
     inkscape:pageopacity="0.0"
     inkscape:pagecheckerboard="0"
     inkscape:deskcolor="#d1d1d1"
     showgrid="false"
     inkscape:zoom="1.475"
     inkscape:cx="204.40678"
     inkscape:cy="80"
     inkscape:window-width="1920"
     inkscape:window-height="1129"
     inkscape:window-x="1912"
     inkscape:window-y="-1"
     inkscape:window-maximized="1"
     inkscape:current-layer="svg829" />
  <defs
     id="defs687">
    <g
       id="g682" />
    <clipPath
       id="a1879e478b">
      <path
         d="m 33,9.132812 h 90 V 111 H 33 Z m 0,0"
         clip-rule="nonzero"
         id="path684" />
    </clipPath>
  </defs>
  <rect
     style="fill:#ffffff;stroke-width:0.625215;-inkscape-stroke:none;stop-color:#000000"
     id="rect1171"
     width="106.27119"
     height="106.27119"
     x="-2.0338984"
     y="-1.5254239" />
  <g
     id="g960"
     transform="translate(3.465505,4.157838)">
    <g
       clip-path="url(#a1879e478b)"
       id="g693"
       transform="translate(-30.508475,-13.220339)">
      <path
         fill="#424143"
         d="M 33.9375,34.597656 78.042969,9.132812 122.14844,34.597656 V 85.527344 L 78.042969,110.99219 33.9375,85.527344 Z m 0,0"
         fill-opacity="1"
         fill-rule="nonzero"
         id="path691" />
    </g>
    <path
       fill="#ffffff"
       d="m 86.971995,46.842161 c 0,21.78125 -17.656251,39.4375 -39.437501,39.4375 -21.78125,0 -39.4374996,-17.65625 -39.4374996,-39.4375 0,-21.777344 17.6562496,-39.4375 39.4374996,-39.4375 21.78125,0 39.437501,17.660156 39.437501,39.4375 z m 0,0"
       fill-opacity="1"
       fill-rule="nonzero"
       id="path695" />
    <path
       fill="#424143"
       d="m 47.604806,34.303099 c -0.804687,0 -1.589843,0.08594 -2.351562,0.230468 1.421875,1.308594 2.316406,3.175782 2.316406,5.261719 0,3.953125 -3.207031,7.160156 -7.160156,7.160156 -2.058594,0 -3.917969,-0.875 -5.222657,-2.269531 -0.132812,0.730469 -0.214843,1.480469 -0.214843,2.25 0,6.976562 5.65625,12.632812 12.632812,12.632812 6.976563,0 12.628907,-5.65625 12.628907,-12.632812 0,-6.976562 -5.652344,-12.632812 -12.628907,-12.632812 z m 0,0"
       fill-opacity="1"
       fill-rule="nonzero"
       id="path697" />
    <path
       fill="#7b61ff"
       d="M 59.596994,16.432005 C 55.6634,14.756223 52.085275,14.13513 47.542306,14.13513 c -6.03125,0 -11.675781,1.640625 -16.53125,4.488281 -4.046875,10.414062 -3.605469,18.382812 -2.679687,23.988281 0.05469,-0.289062 4.277344,-22.265625 31.265625,-26.179687 z m 0,0"
       fill-opacity="1"
       fill-rule="nonzero"
       id="path699" />
    <path
       fill="#7b61ff"
       d="m 15.046213,51.115599 c 1.648437,10.355468 6.792968,17.59375 14.09375,22.75 7.925781,-0.730469 21.53125,-7.285157 21.980468,-7.640626 -3.042968,0.785157 -26.660156,0.59375 -36.074218,-15.109374 z m 0,0"
       fill-opacity="1"
       fill-rule="nonzero"
       id="path701" />
    <path
       fill="#4a2fb0"
       d="m 34.261056,76.732786 c 4.058594,1.808594 8.550781,2.820313 13.28125,2.820313 5.269531,0 9.617188,-0.941407 14.027344,-3.15625 3.632813,-8.558594 4.828125,-16.382813 5.085937,-24.355469 -0.171874,0.574219 -3.28125,16.507812 -32.394531,24.691406 z m 0,0"
       fill-opacity="1"
       fill-rule="nonzero"
       id="path703" />
    <path
       fill="#7b61ff"
       d="m 61.56965,33.01013 c 5.085937,5.925781 13.375005,15.664062 4.980469,40.445312 C 74.753245,67.752317 79.854805,58.650755 80.221995,47.990599 73.796215,36.642942 62.7884,33.482786 61.56965,33.01013 Z m 0,0"
       fill-opacity="1"
       fill-rule="nonzero"
       id="path705" />
    <path
       fill="#4a2fb0"
       d="M 64.171213,18.678099 C 53.19465,20.064817 46.3509,23.756223 42.405587,26.830442 c -0.421874,0.332031 -1.34375,1.207031 -1.726562,1.53125 11.191406,-3.476562 30.68359,0.621094 39.30078,14.25 -1.03125,-9.082031 -7.10937,-18.785156 -15.808592,-23.933593 z m 0,0"
       fill-opacity="1"
       fill-rule="nonzero"
       id="path707" />
    <path
       fill="#4a2fb0"
       d="M 26.487619,21.807005 C 19.346994,28.053099 15.00715,36.014036 14.846994,46.326536 21.448556,54.939817 27.870431,58.29138 33.323556,60.498411 30.667306,58.017942 19.620431,43.392942 26.487619,21.807005 Z m 0,0"
       fill-opacity="1"
       fill-rule="nonzero"
       id="path709" />
  </g>
  <g
     fill="#414042"
     fill-opacity="1"
     id="g739">
    <g
       transform="translate(200.14653,104.3982)"
       id="g737">
      <g
         id="g735" />
    </g>
  </g>
</svg>
