<?xml version="1.0" encoding="UTF-8" standalone="no"?>
<svg
   width="136"
   zoomAndPan="magnify"
   viewBox="0 0 102 102"
   height="136"
   preserveAspectRatio="xMidYMid"
   version="1.0"
   id="svg829"
   sodipodi:docname="GettingStarted.svg"
   inkscape:version="1.2.2 (732a01da63, 2022-12-09)"
   xml:space="preserve"
   xmlns:inkscape="http://www.inkscape.org/namespaces/inkscape"
   xmlns:sodipodi="http://sodipodi.sourceforge.net/DTD/sodipodi-0.dtd"
   xmlns="http://www.w3.org/2000/svg"
   xmlns:svg="http://www.w3.org/2000/svg"><sodipodi:namedview
     id="namedview831"
     pagecolor="#ffffff"
     bordercolor="#000000"
     borderopacity="0.25"
     inkscape:showpageshadow="2"
     inkscape:pageopacity="0.0"
     inkscape:pagecheckerboard="0"
     inkscape:deskcolor="#d1d1d1"
     showgrid="false"
     inkscape:zoom="1.475"
     inkscape:cx="131.86441"
     inkscape:cy="80"
     inkscape:window-width="1920"
     inkscape:window-height="1129"
     inkscape:window-x="1912"
     inkscape:window-y="-1"
     inkscape:window-maximized="1"
     inkscape:current-layer="g3219" /><defs
     id="defs687"><g
       id="g682" /><clipPath
       id="a1879e478b"><path
         d="m 33,9.132812 h 90 V 111 H 33 Z m 0,0"
         clip-rule="nonzero"
         id="path684" /></clipPath></defs><rect
     style="fill:#666666;stroke-width:0.625215;-inkscape-stroke:none;stop-color:#000000"
     id="rect1171"
     width="106.27119"
     height="106.27119"
     x="-2.1355934"
     y="-2.1355934" /><g
     fill="#414042"
     fill-opacity="1"
     id="g739"><g
       transform="translate(200.14653,104.3982)"
       id="g737"><g
         id="g735" /></g></g><g
     style="fill:#ffffff"
     id="g3219"
     transform="matrix(4.5635554,0,0,4.5635554,14.4895,14.492076)"><path
       d="m 9.64496,15.9998 h -3.289 C 6.25979,16.0009 6.16642,15.9677 6.09296,15.9062 6.0195,15.8447 5.97086,15.759 5.95596,15.6648 l -0.316,-2.1206 c -0.49589,-0.2 -0.96321,-0.4635 -1.39,-0.7838 l -2.05,0.7997 C 2.15401,13.576 2.10565,13.584 2.05696,13.5839 1.98476,13.5854 1.91346,13.5678 1.85037,13.533 1.78728,13.4981 1.73468,13.4473 1.69796,13.3857 L 0.0569635,10.617 C 0.00822588,10.534 -0.00849985,10.4364 0.00989017,10.3422 0.0282802,10.248 0.0805372,10.1636 0.156963,10.1046 L 1.88996,8.78371 C 1.85392,8.52391 1.83455,8.2621 1.83196,7.99987 1.83453,7.73763 1.8539,7.47583 1.88996,7.21603 L 0.154963,5.89609 C 0.0785372,5.83715 0.0262802,5.75275 0.00789017,5.65853 -0.0104999,5.56432 0.00622588,5.46669 0.0549635,5.38377 L 1.69996,2.61605 c 0.03493,-0.062 0.08603,-0.11356 0.14795,-0.1493 0.06193,-0.03573 0.1324,-0.05433 0.20405,-0.05384 0.0513,5e-5 0.10214,0.00945 0.15,0.02774 l 2.048,0.7997 C 4.67773,2.9215 5.14485,2.65809 5.63996,2.45651 l 0.313,-2.120628 C 5.96771,0.241031 6.01669,0.154705 6.09081,0.0929256 6.16492,0.0311467 6.25913,-0.00188877 6.35596,-4.91816e-5 h 3.289 C 9.74128,-0.00116464 9.83477,0.0321995 9.90825,0.0939133 9.98174,0.155627 10.0303,0.241545 10.045,0.335882 l 0.312,2.119638 c 0.4968,0.19874 0.9646,0.46235 1.391,0.78384 L 13.8,2.43966 c 0.0458,-0.01634 0.0942,-0.02472 0.143,-0.02477 0.072,-0.00153 0.1432,0.01603 0.2061,0.05088 0.063,0.03484 0.1154,0.08569 0.1519,0.14731 l 1.645,2.76871 c 0.0487,0.08292 0.0654,0.18055 0.047,0.27476 -0.0184,0.09422 -0.0706,0.17862 -0.147,0.23755 l -1.735,1.32193 c 0.0768,0.51979 0.0768,1.04789 0,1.56768 l 1.735,1.32389 c 0.0764,0.0589 0.1286,0.1434 0.147,0.2376 0.0184,0.0942 0.0017,0.1918 -0.047,0.2747 L 14.3,13.3837 c -0.0348,0.0622 -0.0859,0.1139 -0.1478,0.1498 -0.0619,0.036 -0.1325,0.0547 -0.2042,0.0543 -0.051,-10e-5 -0.1015,-0.0095 -0.149,-0.0277 l -2.047,-0.7997 c -0.4288,0.3178 -0.8961,0.5812 -1.391,0.7838 l -0.312,2.1197 c -0.0148,0.095 -0.06393,0.1814 -0.13826,0.2432 -0.07432,0.0618 -0.16878,0.0948 -0.26578,0.0927 z M 7.99996,5.20044 C 7.44332,5.21059 6.9021,5.38345 6.44424,5.69731 5.98638,6.01117 5.63227,6.45206 5.42636,6.96464 5.22044,7.47722 5.1719,8.03864 5.28683,8.57846 5.40175,9.11828 5.67502,9.61243 6.07234,9.99889 6.46965,10.3854 6.97331,10.6469 7.5201,10.7508 8.06689,10.8546 8.63244,10.7961 9.14579,10.5825 9.65913,10.369 10.0974,10.0099 10.4056,9.55048 10.7137,9.091 10.8781,8.55157 10.878,7.99987 10.87,7.25073 10.5626,6.53529 10.0231,6.01048 9.48353,5.48568 8.75596,5.19437 7.99996,5.20044 Z"
       fill="#a4a4a4"
       id="path3210"
       style="fill:#ffffff" /></g></svg>
