<svg width="4154" height="2125" viewBox="0 0 4154 2125" fill="none" xmlns="http://www.w3.org/2000/svg">
<rect width="4154" height="2125" fill="white"/>
<rect x="132.753" y="685.797" width="2141.66" height="1349.37" fill="#D9D9D9" stroke="#939090" stroke-width="19"/>
<rect x="2274.41" y="921.008" width="1819.79" height="1114.16" fill="#D9D9D9" stroke="#939090" stroke-width="19"/>
<path d="M1028.78 1340.31C1028.51 1337.56 1027.34 1335.42 1025.27 1333.9C1023.2 1332.38 1020.4 1331.62 1016.85 1331.62C1014.44 1331.62 1012.41 1331.96 1010.75 1332.64C1009.09 1333.3 1007.82 1334.22 1006.93 1335.4C1006.07 1336.58 1005.64 1337.92 1005.64 1339.42C1005.59 1340.67 1005.85 1341.76 1006.42 1342.7C1007.01 1343.63 1007.82 1344.43 1008.84 1345.12C1009.86 1345.78 1011.05 1346.35 1012.39 1346.85C1013.73 1347.33 1015.16 1347.74 1016.68 1348.08L1022.95 1349.58C1026 1350.26 1028.8 1351.17 1031.34 1352.31C1033.89 1353.45 1036.09 1354.84 1037.95 1356.5C1039.82 1358.16 1041.26 1360.12 1042.28 1362.37C1043.33 1364.62 1043.86 1367.2 1043.89 1370.1C1043.86 1374.38 1042.77 1378.08 1040.61 1381.22C1038.48 1384.33 1035.39 1386.75 1031.34 1388.48C1027.32 1390.18 1022.47 1391.04 1016.78 1391.04C1011.15 1391.04 1006.24 1390.17 1002.06 1388.45C997.898 1386.72 994.648 1384.16 992.307 1380.78C989.989 1377.37 988.773 1373.15 988.659 1368.13H1002.94C1003.1 1370.47 1003.77 1372.42 1004.95 1373.99C1006.16 1375.54 1007.76 1376.71 1009.76 1377.5C1011.78 1378.28 1014.07 1378.66 1016.61 1378.66C1019.11 1378.66 1021.28 1378.3 1023.12 1377.57C1024.99 1376.84 1026.43 1375.83 1027.45 1374.54C1028.48 1373.24 1028.99 1371.75 1028.99 1370.07C1028.99 1368.5 1028.52 1367.18 1027.59 1366.12C1026.68 1365.05 1025.34 1364.14 1023.57 1363.39C1021.82 1362.64 1019.67 1361.96 1017.12 1361.34L1009.52 1359.43C1003.64 1358 998.989 1355.76 995.579 1352.72C992.17 1349.67 990.477 1345.57 990.5 1340.41C990.477 1336.18 991.602 1332.49 993.875 1329.33C996.17 1326.17 999.318 1323.71 1003.32 1321.93C1007.32 1320.16 1011.86 1319.28 1016.95 1319.28C1022.14 1319.28 1026.66 1320.16 1030.52 1321.93C1034.41 1323.71 1037.43 1326.17 1039.59 1329.33C1041.75 1332.49 1042.86 1336.15 1042.93 1340.31H1028.78ZM1077.2 1391.07C1071.84 1391.07 1067.22 1389.93 1063.36 1387.66C1059.52 1385.37 1056.57 1382.18 1054.5 1378.12C1052.45 1374.05 1051.43 1369.37 1051.43 1364.07C1051.43 1358.71 1052.46 1354 1054.53 1349.96C1056.62 1345.89 1059.59 1342.72 1063.43 1340.45C1067.27 1338.15 1071.84 1337 1077.13 1337C1081.7 1337 1085.7 1337.83 1089.13 1339.49C1092.57 1341.15 1095.28 1343.48 1097.28 1346.48C1099.28 1349.48 1100.38 1353 1100.59 1357.05H1086.88C1086.5 1354.43 1085.47 1352.33 1083.82 1350.74C1082.18 1349.13 1080.03 1348.32 1077.37 1348.32C1075.12 1348.32 1073.16 1348.93 1071.47 1350.16C1069.82 1351.37 1068.52 1353.13 1067.59 1355.45C1066.66 1357.76 1066.19 1360.57 1066.19 1363.87C1066.19 1367.21 1066.64 1370.05 1067.55 1372.39C1068.49 1374.73 1069.79 1376.51 1071.47 1377.74C1073.16 1378.97 1075.12 1379.58 1077.37 1379.58C1079.03 1379.58 1080.52 1379.24 1081.84 1378.56C1083.18 1377.88 1084.28 1376.89 1085.14 1375.59C1086.03 1374.28 1086.61 1372.7 1086.88 1370.85H1100.59C1100.36 1374.85 1099.27 1378.38 1097.32 1381.42C1095.38 1384.45 1092.71 1386.81 1089.3 1388.51C1085.89 1390.22 1081.86 1391.07 1077.2 1391.07ZM1109.89 1390.05V1337.68H1123.97V1346.82H1124.51C1125.47 1343.57 1127.07 1341.12 1129.32 1339.46C1131.57 1337.78 1134.16 1336.93 1137.09 1336.93C1137.82 1336.93 1138.6 1336.98 1139.44 1337.07C1140.28 1337.16 1141.02 1337.29 1141.66 1337.45V1350.33C1140.98 1350.13 1140.03 1349.95 1138.83 1349.79C1137.62 1349.63 1136.52 1349.55 1135.52 1349.55C1133.39 1349.55 1131.48 1350.01 1129.8 1350.95C1128.14 1351.85 1126.82 1353.13 1125.84 1354.76C1124.89 1356.4 1124.41 1358.29 1124.41 1360.42V1390.05H1109.89ZM1170.59 1391.07C1165.21 1391.07 1160.57 1389.98 1156.68 1387.8C1152.82 1385.59 1149.84 1382.48 1147.75 1378.46C1145.66 1374.41 1144.62 1369.63 1144.62 1364.1C1144.62 1358.72 1145.66 1353.99 1147.75 1349.92C1149.84 1345.85 1152.79 1342.68 1156.58 1340.41C1160.4 1338.14 1164.88 1337 1170.01 1337C1173.47 1337 1176.68 1337.56 1179.66 1338.67C1182.66 1339.76 1185.28 1341.41 1187.5 1343.62C1189.75 1345.82 1191.5 1348.59 1192.75 1351.93C1194 1355.25 1194.63 1359.14 1194.63 1363.59V1367.58H1150.41V1358.58H1180.96C1180.96 1356.49 1180.5 1354.64 1179.59 1353.03C1178.68 1351.41 1177.42 1350.15 1175.81 1349.24C1174.22 1348.31 1172.37 1347.84 1170.25 1347.84C1168.05 1347.84 1166.09 1348.35 1164.39 1349.38C1162.71 1350.38 1161.39 1351.73 1160.43 1353.43C1159.48 1355.12 1158.99 1356.99 1158.97 1359.06V1367.62C1158.97 1370.21 1159.45 1372.45 1160.4 1374.33C1161.38 1376.22 1162.75 1377.67 1164.53 1378.7C1166.3 1379.72 1168.4 1380.23 1170.83 1380.23C1172.45 1380.23 1173.92 1380 1175.26 1379.55C1176.61 1379.09 1177.75 1378.41 1178.71 1377.5C1179.66 1376.59 1180.39 1375.48 1180.89 1374.16L1194.32 1375.05C1193.64 1378.28 1192.24 1381.09 1190.13 1383.5C1188.04 1385.89 1185.33 1387.75 1182.01 1389.09C1178.72 1390.41 1174.91 1391.07 1170.59 1391.07ZM1227.97 1391.07C1222.58 1391.07 1217.95 1389.98 1214.06 1387.8C1210.2 1385.59 1207.22 1382.48 1205.13 1378.46C1203.04 1374.41 1201.99 1369.63 1201.99 1364.1C1201.99 1358.72 1203.04 1353.99 1205.13 1349.92C1207.22 1345.85 1210.16 1342.68 1213.96 1340.41C1217.78 1338.14 1222.25 1337 1227.39 1337C1230.84 1337 1234.06 1337.56 1237.04 1338.67C1240.04 1339.76 1242.65 1341.41 1244.88 1343.62C1247.13 1345.82 1248.88 1348.59 1250.13 1351.93C1251.38 1355.25 1252 1359.14 1252 1363.59V1367.58H1207.79V1358.58H1238.33C1238.33 1356.49 1237.88 1354.64 1236.97 1353.03C1236.06 1351.41 1234.8 1350.15 1233.18 1349.24C1231.59 1348.31 1229.74 1347.84 1227.63 1347.84C1225.42 1347.84 1223.47 1348.35 1221.76 1349.38C1220.08 1350.38 1218.76 1351.73 1217.81 1353.43C1216.86 1355.12 1216.37 1356.99 1216.34 1359.06V1367.62C1216.34 1370.21 1216.82 1372.45 1217.78 1374.33C1218.75 1376.22 1220.13 1377.67 1221.9 1378.7C1223.67 1379.72 1225.78 1380.23 1228.21 1380.23C1229.82 1380.23 1231.3 1380 1232.64 1379.55C1233.98 1379.09 1235.13 1378.41 1236.08 1377.5C1237.04 1376.59 1237.76 1375.48 1238.26 1374.16L1251.7 1375.05C1251.01 1378.28 1249.62 1381.09 1247.5 1383.5C1245.41 1385.89 1242.71 1387.75 1239.39 1389.09C1236.09 1390.41 1232.29 1391.07 1227.97 1391.07ZM1276 1359.78V1390.05H1261.48V1337.68H1275.32V1346.92H1275.93C1277.09 1343.88 1279.04 1341.47 1281.76 1339.7C1284.49 1337.9 1287.8 1337 1291.68 1337C1295.32 1337 1298.49 1337.8 1301.2 1339.39C1303.9 1340.98 1306 1343.25 1307.5 1346.21C1309 1349.14 1309.75 1352.64 1309.75 1356.71V1390.05H1295.23V1359.3C1295.25 1356.09 1294.43 1353.59 1292.78 1351.8C1291.12 1349.98 1288.83 1349.07 1285.92 1349.07C1283.97 1349.07 1282.24 1349.49 1280.74 1350.33C1279.26 1351.17 1278.11 1352.4 1277.26 1354.01C1276.45 1355.6 1276.03 1357.53 1276 1359.78ZM1373.66 1320.23V1390.05H1358.89V1334.24H1358.49L1342.5 1344.26V1331.17L1359.78 1320.23H1373.66Z" fill="#8B8B8B"/>
<path d="M3009.51 1457.91C3009.23 1455.16 3008.06 1453.03 3006 1451.5C3003.93 1449.98 3001.12 1449.22 2997.58 1449.22C2995.17 1449.22 2993.13 1449.56 2991.47 1450.24C2989.81 1450.9 2988.54 1451.82 2987.66 1453C2986.79 1454.19 2986.36 1455.53 2986.36 1457.03C2986.31 1458.28 2986.58 1459.37 2987.14 1460.3C2987.73 1461.23 2988.54 1462.04 2989.56 1462.72C2990.59 1463.38 2991.77 1463.96 2993.11 1464.46C2994.45 1464.94 2995.88 1465.35 2997.41 1465.69L3003.68 1467.19C3006.72 1467.87 3009.52 1468.78 3012.06 1469.91C3014.61 1471.05 3016.81 1472.45 3018.68 1474.11C3020.54 1475.77 3021.98 1477.72 3023.01 1479.97C3024.05 1482.22 3024.59 1484.8 3024.61 1487.71C3024.59 1491.98 3023.5 1495.69 3021.34 1498.82C3019.2 1501.94 3016.11 1504.36 3012.06 1506.08C3008.04 1507.79 3003.19 1508.64 2997.51 1508.64C2991.87 1508.64 2986.96 1507.78 2982.78 1506.05C2978.62 1504.32 2975.37 1501.77 2973.03 1498.38C2970.71 1494.97 2969.5 1490.75 2969.38 1485.73H2983.67C2983.83 1488.07 2984.5 1490.03 2985.68 1491.6C2986.88 1493.14 2988.48 1494.31 2990.48 1495.11C2992.51 1495.88 2994.79 1496.27 2997.34 1496.27C2999.84 1496.27 3002.01 1495.9 3003.85 1495.18C3005.71 1494.45 3007.16 1493.44 3008.18 1492.14C3009.2 1490.85 3009.71 1489.36 3009.71 1487.68C3009.71 1486.11 3009.25 1484.79 3008.31 1483.72C3007.41 1482.65 3006.06 1481.74 3004.29 1480.99C3002.54 1480.24 3000.39 1479.56 2997.85 1478.95L2990.25 1477.04C2984.36 1475.61 2979.71 1473.37 2976.3 1470.32C2972.89 1467.28 2971.2 1463.18 2971.22 1458.02C2971.2 1453.79 2972.33 1450.1 2974.6 1446.94C2976.89 1443.78 2980.04 1441.31 2984.04 1439.54C2988.04 1437.77 2992.59 1436.88 2997.68 1436.88C3002.86 1436.88 3007.38 1437.77 3011.25 1439.54C3015.13 1441.31 3018.16 1443.78 3020.31 1446.94C3022.47 1450.1 3023.59 1453.75 3023.66 1457.91H3009.51ZM3057.93 1508.68C3052.56 1508.68 3047.95 1507.54 3044.08 1505.27C3040.24 1502.97 3037.29 1499.79 3035.22 1495.72C3033.18 1491.65 3032.15 1486.97 3032.15 1481.68C3032.15 1476.31 3033.19 1471.61 3035.25 1467.56C3037.35 1463.49 3040.31 1460.32 3044.15 1458.05C3047.99 1455.75 3052.56 1454.61 3057.86 1454.61C3062.43 1454.61 3066.43 1455.44 3069.86 1457.1C3073.29 1458.75 3076 1461.08 3078 1464.08C3080 1467.08 3081.11 1470.61 3081.31 1474.65H3067.61C3067.22 1472.04 3066.2 1469.94 3064.54 1468.35C3062.9 1466.73 3060.75 1465.93 3058.1 1465.93C3055.85 1465.93 3053.88 1466.54 3052.2 1467.77C3050.54 1468.97 3049.24 1470.73 3048.31 1473.05C3047.38 1475.37 3046.91 1478.18 3046.91 1481.47C3046.91 1484.81 3047.37 1487.65 3048.28 1489.99C3049.21 1492.33 3050.52 1494.12 3052.2 1495.35C3053.88 1496.57 3055.85 1497.19 3058.1 1497.19C3059.75 1497.19 3061.24 1496.85 3062.56 1496.16C3063.9 1495.48 3065 1494.49 3065.87 1493.2C3066.75 1491.88 3067.33 1490.3 3067.61 1488.46H3081.31C3081.08 1492.46 3079.99 1495.98 3078.04 1499.03C3076.11 1502.05 3073.44 1504.41 3070.03 1506.12C3066.62 1507.82 3062.58 1508.68 3057.93 1508.68ZM3090.61 1507.65V1455.29H3104.69V1464.43H3105.23C3106.19 1461.18 3107.79 1458.72 3110.04 1457.06C3112.29 1455.38 3114.88 1454.54 3117.81 1454.54C3118.54 1454.54 3119.33 1454.58 3120.17 1454.68C3121.01 1454.77 3121.75 1454.89 3122.38 1455.05V1467.94C3121.7 1467.73 3120.76 1467.55 3119.55 1467.39C3118.35 1467.23 3117.25 1467.15 3116.25 1467.15C3114.11 1467.15 3112.2 1467.62 3110.52 1468.55C3108.86 1469.46 3107.54 1470.73 3106.56 1472.37C3105.61 1474 3105.13 1475.89 3105.13 1478.03V1507.65H3090.61ZM3151.32 1508.68C3145.93 1508.68 3141.29 1507.58 3137.41 1505.4C3133.54 1503.2 3130.57 1500.08 3128.48 1496.06C3126.39 1492.02 3125.34 1487.23 3125.34 1481.71C3125.34 1476.32 3126.39 1471.6 3128.48 1467.53C3130.57 1463.46 3133.51 1460.29 3137.31 1458.02C3141.12 1455.74 3145.6 1454.61 3150.74 1454.61C3154.19 1454.61 3157.41 1455.16 3160.39 1456.28C3163.39 1457.37 3166 1459.02 3168.23 1461.22C3170.48 1463.43 3172.23 1466.2 3173.48 1469.54C3174.73 1472.86 3175.35 1476.74 3175.35 1481.2V1485.19H3131.14V1476.19H3161.68C3161.68 1474.1 3161.23 1472.24 3160.32 1470.63C3159.41 1469.02 3158.15 1467.75 3156.53 1466.85C3154.94 1465.91 3153.09 1465.45 3150.98 1465.45C3148.77 1465.45 3146.82 1465.96 3145.11 1466.98C3143.43 1467.98 3142.11 1469.33 3141.16 1471.04C3140.2 1472.72 3139.72 1474.6 3139.69 1476.66V1485.22C3139.69 1487.81 3140.17 1490.05 3141.12 1491.94C3142.1 1493.82 3143.48 1495.28 3145.25 1496.3C3147.02 1497.32 3149.12 1497.83 3151.56 1497.83C3153.17 1497.83 3154.65 1497.61 3155.99 1497.15C3157.33 1496.7 3158.48 1496.02 3159.43 1495.11C3160.39 1494.2 3161.11 1493.08 3161.61 1491.77L3175.04 1492.65C3174.36 1495.88 3172.97 1498.7 3170.85 1501.11C3168.76 1503.49 3166.06 1505.36 3162.74 1506.7C3159.44 1508.02 3155.64 1508.68 3151.32 1508.68ZM3208.69 1508.68C3203.31 1508.68 3198.67 1507.58 3194.78 1505.4C3190.92 1503.2 3187.94 1500.08 3185.85 1496.06C3183.76 1492.02 3182.72 1487.23 3182.72 1481.71C3182.72 1476.32 3183.76 1471.6 3185.85 1467.53C3187.94 1463.46 3190.89 1460.29 3194.68 1458.02C3198.5 1455.74 3202.98 1454.61 3208.11 1454.61C3211.57 1454.61 3214.78 1455.16 3217.76 1456.28C3220.76 1457.37 3223.37 1459.02 3225.6 1461.22C3227.85 1463.43 3229.6 1466.2 3230.85 1469.54C3232.1 1472.86 3232.73 1476.74 3232.73 1481.2V1485.19H3188.51V1476.19H3219.06C3219.06 1474.1 3218.6 1472.24 3217.69 1470.63C3216.78 1469.02 3215.52 1467.75 3213.91 1466.85C3212.32 1465.91 3210.47 1465.45 3208.35 1465.45C3206.15 1465.45 3204.19 1465.96 3202.49 1466.98C3200.81 1467.98 3199.49 1469.33 3198.53 1471.04C3197.58 1472.72 3197.09 1474.6 3197.07 1476.66V1485.22C3197.07 1487.81 3197.54 1490.05 3198.5 1491.94C3199.48 1493.82 3200.85 1495.28 3202.62 1496.3C3204.4 1497.32 3206.5 1497.83 3208.93 1497.83C3210.54 1497.83 3212.02 1497.61 3213.36 1497.15C3214.7 1496.7 3215.85 1496.02 3216.81 1495.11C3217.76 1494.2 3218.49 1493.08 3218.99 1491.77L3232.42 1492.65C3231.74 1495.88 3230.34 1498.7 3228.23 1501.11C3226.14 1503.49 3223.43 1505.36 3220.11 1506.7C3216.82 1508.02 3213.01 1508.68 3208.69 1508.68ZM3256.73 1477.38V1507.65H3242.2V1455.29H3256.04V1464.53H3256.66C3257.82 1461.48 3259.76 1459.07 3262.49 1457.3C3265.22 1455.5 3268.52 1454.61 3272.41 1454.61C3276.04 1454.61 3279.22 1455.4 3281.92 1456.99C3284.62 1458.58 3286.73 1460.86 3288.23 1463.81C3289.73 1466.74 3290.48 1470.24 3290.48 1474.31V1507.65H3275.95V1476.9C3275.98 1473.7 3275.16 1471.2 3273.5 1469.4C3271.84 1467.58 3269.56 1466.68 3266.65 1466.68C3264.69 1466.68 3262.97 1467.1 3261.47 1467.94C3259.99 1468.78 3258.83 1470 3257.99 1471.62C3257.17 1473.21 3256.75 1475.13 3256.73 1477.38ZM3324 1507.65V1497.02L3348.86 1474C3350.97 1471.96 3352.74 1470.12 3354.18 1468.48C3355.63 1466.85 3356.73 1465.24 3357.48 1463.68C3358.23 1462.08 3358.61 1460.37 3358.61 1458.53C3358.61 1456.48 3358.14 1454.72 3357.21 1453.24C3356.28 1451.74 3355 1450.6 3353.39 1449.8C3351.78 1448.98 3349.95 1448.57 3347.9 1448.57C3345.77 1448.57 3343.9 1449 3342.31 1449.87C3340.72 1450.73 3339.49 1451.97 3338.63 1453.58C3337.77 1455.2 3337.33 1457.12 3337.33 1459.35H3323.32C3323.32 1454.78 3324.36 1450.81 3326.43 1447.45C3328.49 1444.08 3331.39 1441.48 3335.12 1439.64C3338.85 1437.8 3343.14 1436.88 3348 1436.88C3353 1436.88 3357.36 1437.77 3361.06 1439.54C3364.79 1441.29 3367.69 1443.72 3369.75 1446.83C3371.82 1449.95 3372.86 1453.52 3372.86 1457.54C3372.86 1460.18 3372.33 1462.78 3371.29 1465.35C3370.27 1467.91 3368.44 1470.77 3365.8 1473.9C3363.16 1477.02 3359.45 1480.75 3354.65 1485.12L3344.46 1495.11V1495.58H3373.78V1507.65H3324Z" fill="#8B8B8B"/>
<path d="M2267.34 1494.7C2271.24 1498.61 2277.58 1498.61 2281.48 1494.7L2345.12 1431.06C2349.03 1427.16 2349.03 1420.83 2345.12 1416.92C2341.22 1413.02 2334.88 1413.02 2330.98 1416.92L2274.41 1473.49L2217.84 1416.92C2213.94 1413.02 2207.6 1413.02 2203.7 1416.92C2199.79 1420.83 2199.79 1427.16 2203.7 1431.06L2267.34 1494.7ZM2264.41 931.95L2264.41 1487.63L2284.41 1487.63L2284.41 931.95L2264.41 931.95Z" fill="#C82D2D"/>
<path d="M2989.31 939.021C2993.22 935.116 2993.22 928.784 2989.31 924.879L2925.67 861.239C2921.77 857.334 2915.44 857.334 2911.53 861.239C2907.63 865.144 2907.63 871.476 2911.53 875.381L2968.1 931.95L2911.53 988.518C2907.63 992.423 2907.63 998.755 2911.53 1002.66C2915.44 1006.57 2921.77 1006.57 2925.67 1002.66L2989.31 939.021ZM2274.41 941.95H2982.24V921.95H2274.41V941.95Z" fill="#C82D2D"/>
<path d="M2318.55 1031.27C2318.55 1022.72 2319.67 1014.86 2321.92 1007.68C2324.17 1000.49 2327.46 993.868 2331.77 987.8H2341.11C2339.43 990.05 2337.86 992.812 2336.41 996.084C2334.96 999.357 2333.68 1002.95 2332.59 1006.86C2331.5 1010.74 2330.65 1014.78 2330.04 1018.96C2329.42 1023.12 2329.11 1027.22 2329.11 1031.27C2329.11 1036.68 2329.65 1042.15 2330.72 1047.7C2331.79 1053.24 2333.23 1058.39 2335.05 1063.14C2336.86 1067.89 2338.89 1071.77 2341.11 1074.77H2331.77C2327.46 1068.7 2324.17 1062.07 2321.92 1054.89C2319.67 1047.71 2318.55 1039.83 2318.55 1031.27ZM2376.03 1067.33C2370.65 1067.31 2366.04 1065.89 2362.23 1063.07C2358.41 1060.25 2355.49 1056.15 2353.46 1050.77C2351.44 1045.38 2350.43 1038.89 2350.43 1031.3C2350.43 1023.73 2351.44 1017.27 2353.46 1011.9C2355.51 1006.54 2358.44 1002.45 2362.26 999.63C2366.1 996.812 2370.69 995.403 2376.03 995.403C2381.37 995.403 2385.95 996.823 2389.77 999.664C2393.59 1002.48 2396.51 1006.57 2398.53 1011.94C2400.58 1017.28 2401.6 1023.73 2401.6 1031.3C2401.6 1038.91 2400.59 1045.41 2398.57 1050.8C2396.54 1056.16 2393.62 1060.27 2389.81 1063.11C2385.99 1065.93 2381.4 1067.33 2376.03 1067.33ZM2376.03 1058.23C2380.76 1058.23 2384.45 1055.93 2387.11 1051.31C2389.79 1046.7 2391.13 1040.03 2391.13 1031.3C2391.13 1025.5 2390.52 1020.61 2389.29 1016.61C2388.09 1012.58 2386.35 1009.54 2384.08 1007.47C2381.83 1005.38 2379.15 1004.33 2376.03 1004.33C2371.33 1004.33 2367.63 1006.65 2364.95 1011.29C2362.27 1015.93 2360.92 1022.6 2360.9 1031.3C2360.9 1037.12 2361.5 1042.04 2362.7 1046.06C2363.93 1050.06 2365.67 1053.1 2367.92 1055.16C2370.17 1057.21 2372.87 1058.23 2376.03 1058.23ZM2424.56 1056.63L2424.05 1060.35C2423.71 1063.07 2423.13 1065.91 2422.31 1068.87C2421.52 1071.85 2420.69 1074.61 2419.82 1077.15C2418.98 1079.7 2418.29 1081.72 2417.74 1083.22H2410.52C2410.81 1081.81 2411.22 1079.9 2411.74 1077.49C2412.27 1075.11 2412.78 1072.44 2413.28 1069.48C2413.78 1066.53 2414.15 1063.52 2414.4 1060.45L2414.74 1056.63H2424.56ZM2487.41 1067.33C2482.02 1067.31 2477.42 1065.89 2473.6 1063.07C2469.78 1060.25 2466.86 1056.15 2464.84 1050.77C2462.82 1045.38 2461.81 1038.89 2461.81 1031.3C2461.81 1023.73 2462.82 1017.27 2464.84 1011.9C2466.88 1006.54 2469.82 1002.45 2473.63 999.63C2477.48 996.812 2482.07 995.403 2487.41 995.403C2492.75 995.403 2497.33 996.823 2501.15 999.664C2504.96 1002.48 2507.88 1006.57 2509.91 1011.94C2511.95 1017.28 2512.98 1023.73 2512.98 1031.3C2512.98 1038.91 2511.96 1045.41 2509.94 1050.8C2507.92 1056.16 2505 1060.27 2501.18 1063.11C2497.36 1065.93 2492.77 1067.33 2487.41 1067.33ZM2487.41 1058.23C2492.13 1058.23 2495.83 1055.93 2498.49 1051.31C2501.17 1046.7 2502.51 1040.03 2502.51 1031.3C2502.51 1025.5 2501.9 1020.61 2500.67 1016.61C2499.46 1012.58 2497.73 1009.54 2495.45 1007.47C2493.2 1005.38 2490.52 1004.33 2487.41 1004.33C2482.7 1004.33 2479.01 1006.65 2476.33 1011.29C2473.65 1015.93 2472.29 1022.6 2472.27 1031.3C2472.27 1037.12 2472.87 1042.04 2474.08 1046.06C2475.31 1050.06 2477.04 1053.1 2479.29 1055.16C2481.54 1057.21 2484.25 1058.23 2487.41 1058.23ZM2544.81 1031.27C2544.81 1039.83 2543.68 1047.71 2541.43 1054.89C2539.18 1062.07 2535.9 1068.7 2531.58 1074.77H2522.24C2523.92 1072.52 2525.49 1069.75 2526.94 1066.48C2528.4 1063.21 2529.67 1059.63 2530.76 1055.74C2531.85 1051.83 2532.71 1047.79 2533.32 1043.61C2533.93 1039.43 2534.24 1035.31 2534.24 1031.27C2534.24 1025.88 2533.71 1020.41 2532.64 1014.87C2531.57 1009.32 2530.13 1004.18 2528.31 999.425C2526.49 994.675 2524.47 990.8 2522.24 987.8H2531.58C2535.9 993.868 2539.18 1000.49 2541.43 1007.68C2543.68 1014.86 2544.81 1022.72 2544.81 1031.27Z" fill="black"/>
<path d="M494.155 115.97V85.3224H504.382V137.686H494.359V128.618H493.814C492.609 131.413 490.677 133.743 488.018 135.606C485.382 137.447 482.098 138.368 478.166 138.368C474.802 138.368 471.825 137.629 469.234 136.152C466.666 134.652 464.643 132.436 463.166 129.504C461.711 126.572 460.984 122.947 460.984 118.629V85.3224H471.177V117.402C471.177 120.97 472.166 123.811 474.143 125.925C476.12 128.038 478.689 129.095 481.848 129.095C483.757 129.095 485.655 128.618 487.541 127.663C489.45 126.709 491.03 125.266 492.28 123.334C493.552 121.402 494.177 118.947 494.155 115.97ZM528.271 106.595V137.686H518.078V85.3224H527.862V93.8451H528.51C529.714 91.0724 531.601 88.8451 534.169 87.1633C536.76 85.4815 540.021 84.6406 543.953 84.6406C547.521 84.6406 550.646 85.3906 553.328 86.8906C556.01 88.3679 558.089 90.5724 559.566 93.5042C561.044 96.436 561.782 100.061 561.782 104.379V137.686H551.589V105.606C551.589 101.811 550.601 98.8451 548.623 96.7088C546.646 94.5497 543.93 93.4701 540.476 93.4701C538.112 93.4701 536.01 93.9815 534.169 95.0042C532.351 96.0269 530.907 97.5269 529.839 99.5042C528.794 101.459 528.271 103.822 528.271 106.595ZM576.271 137.686V67.8679H586.464V93.811H587.078C587.669 92.7201 588.521 91.4588 589.635 90.0269C590.748 88.5951 592.294 87.3451 594.271 86.2769C596.248 85.186 598.862 84.6406 602.112 84.6406C606.339 84.6406 610.112 85.7088 613.43 87.8451C616.748 89.9815 619.351 93.061 621.237 97.0838C623.146 101.106 624.101 105.947 624.101 111.606C624.101 117.266 623.157 122.118 621.271 126.163C619.385 130.186 616.794 133.288 613.498 135.47C610.203 137.629 606.441 138.709 602.214 138.709C599.032 138.709 596.43 138.175 594.407 137.106C592.407 136.038 590.839 134.788 589.703 133.356C588.566 131.925 587.691 130.652 587.078 129.538H586.226V137.686H576.271ZM586.26 111.504C586.26 115.186 586.794 118.413 587.862 121.186C588.93 123.959 590.476 126.129 592.498 127.697C594.521 129.243 596.998 130.016 599.93 130.016C602.976 130.016 605.521 129.209 607.566 127.595C609.612 125.959 611.157 123.743 612.203 120.947C613.271 118.152 613.805 115.004 613.805 111.504C613.805 108.05 613.282 104.947 612.237 102.197C611.214 99.4474 609.669 97.2769 607.601 95.686C605.555 94.0951 602.998 93.2997 599.93 93.2997C596.976 93.2997 594.476 94.061 592.43 95.5838C590.407 97.1065 588.873 99.2315 587.828 101.959C586.782 104.686 586.26 107.868 586.26 111.504ZM657.603 138.743C652.694 138.743 648.41 137.618 644.751 135.368C641.092 133.118 638.251 129.97 636.228 125.925C634.206 121.879 633.194 117.152 633.194 111.743C633.194 106.311 634.206 101.561 636.228 97.4929C638.251 93.4247 641.092 90.2656 644.751 88.0156C648.41 85.7656 652.694 84.6406 657.603 84.6406C662.513 84.6406 666.797 85.7656 670.456 88.0156C674.115 90.2656 676.956 93.4247 678.978 97.4929C681.001 101.561 682.013 106.311 682.013 111.743C682.013 117.152 681.001 121.879 678.978 125.925C676.956 129.97 674.115 133.118 670.456 135.368C666.797 137.618 662.513 138.743 657.603 138.743ZM657.638 130.186C660.819 130.186 663.456 129.345 665.547 127.663C667.638 125.981 669.183 123.743 670.183 120.947C671.206 118.152 671.717 115.072 671.717 111.709C671.717 108.368 671.206 105.3 670.183 102.504C669.183 99.686 667.638 97.4247 665.547 95.7201C663.456 94.0156 660.819 93.1633 657.638 93.1633C654.433 93.1633 651.774 94.0156 649.66 95.7201C647.569 97.4247 646.013 99.686 644.99 102.504C643.99 105.3 643.49 108.368 643.49 111.709C643.49 115.072 643.99 118.152 644.99 120.947C646.013 123.743 647.569 125.981 649.66 127.663C651.774 129.345 654.433 130.186 657.638 130.186ZM726.561 115.97V85.3224H736.788V137.686H726.765V128.618H726.22C725.015 131.413 723.084 133.743 720.424 135.606C717.788 137.447 714.504 138.368 710.572 138.368C707.209 138.368 704.231 137.629 701.64 136.152C699.072 134.652 697.049 132.436 695.572 129.504C694.118 126.572 693.39 122.947 693.39 118.629V85.3224H703.584V117.402C703.584 120.97 704.572 123.811 706.549 125.925C708.527 128.038 711.095 129.095 714.254 129.095C716.163 129.095 718.061 128.618 719.947 127.663C721.856 126.709 723.436 125.266 724.686 123.334C725.959 121.402 726.584 118.947 726.561 115.97ZM760.677 106.595V137.686H750.484V85.3224H760.268V93.8451H760.916C762.12 91.0724 764.007 88.8451 766.575 87.1633C769.166 85.4815 772.427 84.6406 776.359 84.6406C779.927 84.6406 783.052 85.3906 785.734 86.8906C788.416 88.3679 790.495 90.5724 791.973 93.5042C793.45 96.436 794.189 100.061 794.189 104.379V137.686H783.995V105.606C783.995 101.811 783.007 98.8451 781.03 96.7088C779.052 94.5497 776.336 93.4701 772.882 93.4701C770.518 93.4701 768.416 93.9815 766.575 95.0042C764.757 96.0269 763.314 97.5269 762.245 99.5042C761.2 101.459 760.677 103.822 760.677 106.595ZM827.461 138.709C823.234 138.709 819.461 137.629 816.143 135.47C812.848 133.288 810.257 130.186 808.37 126.163C806.507 122.118 805.575 117.266 805.575 111.606C805.575 105.947 806.518 101.106 808.405 97.0838C810.314 93.061 812.927 89.9815 816.245 87.8451C819.564 85.7088 823.325 84.6406 827.53 84.6406C830.78 84.6406 833.393 85.186 835.37 86.2769C837.37 87.3451 838.916 88.5951 840.007 90.0269C841.12 91.4588 841.984 92.7201 842.598 93.811H843.211V67.8679H853.405V137.686H843.45V129.538H842.598C841.984 130.652 841.098 131.925 839.939 133.356C838.802 134.788 837.234 136.038 835.234 137.106C833.234 138.175 830.643 138.709 827.461 138.709ZM829.711 130.016C832.643 130.016 835.12 129.243 837.143 127.697C839.189 126.129 840.734 123.959 841.78 121.186C842.848 118.413 843.382 115.186 843.382 111.504C843.382 107.868 842.859 104.686 841.814 101.959C840.768 99.2315 839.234 97.1065 837.211 95.5838C835.189 94.061 832.689 93.2997 829.711 93.2997C826.643 93.2997 824.086 94.0951 822.041 95.686C819.995 97.2769 818.45 99.4474 817.405 102.197C816.382 104.947 815.87 108.05 815.87 111.504C815.87 115.004 816.393 118.152 817.439 120.947C818.484 123.743 820.03 125.959 822.075 127.595C824.143 129.209 826.689 130.016 829.711 130.016ZM890.521 138.743C885.362 138.743 880.919 137.641 877.191 135.436C873.487 133.209 870.623 130.084 868.601 126.061C866.601 122.016 865.601 117.277 865.601 111.845C865.601 106.481 866.601 101.754 868.601 97.6633C870.623 93.5724 873.441 90.3792 877.055 88.0838C880.691 85.7883 884.941 84.6406 889.805 84.6406C892.76 84.6406 895.623 85.1292 898.396 86.1065C901.169 87.0838 903.657 88.6179 905.862 90.7088C908.066 92.7997 909.805 95.5156 911.078 98.8565C912.351 102.175 912.987 106.209 912.987 110.959V114.572H871.362V106.936H902.998C902.998 104.254 902.453 101.879 901.362 99.811C900.271 97.7201 898.737 96.0724 896.76 94.8679C894.805 93.6633 892.51 93.061 889.873 93.061C887.01 93.061 884.51 93.7656 882.373 95.1747C880.26 96.561 878.623 98.3792 877.464 100.629C876.328 102.856 875.76 105.277 875.76 107.891V113.856C875.76 117.356 876.373 120.334 877.601 122.788C878.851 125.243 880.589 127.118 882.816 128.413C885.044 129.686 887.646 130.322 890.623 130.322C892.555 130.322 894.316 130.05 895.907 129.504C897.498 128.936 898.873 128.095 900.032 126.981C901.191 125.868 902.078 124.493 902.691 122.856L912.339 124.595C911.566 127.436 910.18 129.925 908.18 132.061C906.203 134.175 903.714 135.822 900.714 137.004C897.737 138.163 894.339 138.743 890.521 138.743ZM943.899 138.709C939.672 138.709 935.899 137.629 932.581 135.47C929.285 133.288 926.694 130.186 924.808 126.163C922.944 122.118 922.013 117.266 922.013 111.606C922.013 105.947 922.956 101.106 924.842 97.0838C926.751 93.061 929.365 89.9815 932.683 87.8451C936.001 85.7088 939.763 84.6406 943.967 84.6406C947.217 84.6406 949.831 85.186 951.808 86.2769C953.808 87.3451 955.353 88.5951 956.444 90.0269C957.558 91.4588 958.422 92.7201 959.035 93.811H959.649V67.8679H969.842V137.686H959.888V129.538H959.035C958.422 130.652 957.535 131.925 956.376 133.356C955.24 134.788 953.672 136.038 951.672 137.106C949.672 138.175 947.081 138.709 943.899 138.709ZM946.149 130.016C949.081 130.016 951.558 129.243 953.581 127.697C955.626 126.129 957.172 123.959 958.217 121.186C959.285 118.413 959.819 115.186 959.819 111.504C959.819 107.868 959.297 104.686 958.251 101.959C957.206 99.2315 955.672 97.1065 953.649 95.5838C951.626 94.061 949.126 93.2997 946.149 93.2997C943.081 93.2997 940.524 94.0951 938.478 95.686C936.433 97.2769 934.888 99.4474 933.842 102.197C932.819 104.947 932.308 108.05 932.308 111.504C932.308 115.004 932.831 118.152 933.876 120.947C934.922 123.743 936.467 125.959 938.513 127.595C940.581 129.209 943.126 130.016 946.149 130.016ZM1025.07 137.686V146.345H980.717V137.686H1025.07ZM1036.23 157.322V85.3224H1046.19V93.811H1047.04C1047.63 92.7201 1048.48 91.4588 1049.6 90.0269C1050.71 88.5951 1052.26 87.3451 1054.23 86.2769C1056.21 85.186 1058.83 84.6406 1062.08 84.6406C1066.3 84.6406 1070.08 85.7088 1073.39 87.8451C1076.71 89.9815 1079.31 93.061 1081.2 97.0838C1083.11 101.106 1084.06 105.947 1084.06 111.606C1084.06 117.266 1083.12 122.118 1081.23 126.163C1079.35 130.186 1076.76 133.288 1073.46 135.47C1070.17 137.629 1066.4 138.709 1062.18 138.709C1059 138.709 1056.39 138.175 1054.37 137.106C1052.37 136.038 1050.8 134.788 1049.67 133.356C1048.53 131.925 1047.65 130.652 1047.04 129.538H1046.43V157.322H1036.23ZM1046.22 111.504C1046.22 115.186 1046.76 118.413 1047.83 121.186C1048.89 123.959 1050.44 126.129 1052.46 127.697C1054.48 129.243 1056.96 130.016 1059.89 130.016C1062.94 130.016 1065.48 129.209 1067.53 127.595C1069.58 125.959 1071.12 123.743 1072.17 120.947C1073.23 118.152 1073.77 115.004 1073.77 111.504C1073.77 108.05 1073.25 104.947 1072.2 102.197C1071.18 99.4474 1069.63 97.2769 1067.56 95.686C1065.52 94.0951 1062.96 93.2997 1059.89 93.2997C1056.94 93.2997 1054.44 94.061 1052.39 95.5838C1050.37 97.1065 1048.84 99.2315 1047.79 101.959C1046.75 104.686 1046.22 107.868 1046.22 111.504ZM1117.54 138.743C1112.63 138.743 1108.35 137.618 1104.69 135.368C1101.03 133.118 1098.19 129.97 1096.17 125.925C1094.14 121.879 1093.13 117.152 1093.13 111.743C1093.13 106.311 1094.14 101.561 1096.17 97.4929C1098.19 93.4247 1101.03 90.2656 1104.69 88.0156C1108.35 85.7656 1112.63 84.6406 1117.54 84.6406C1122.45 84.6406 1126.73 85.7656 1130.39 88.0156C1134.05 90.2656 1136.89 93.4247 1138.92 97.4929C1140.94 101.561 1141.95 106.311 1141.95 111.743C1141.95 117.152 1140.94 121.879 1138.92 125.925C1136.89 129.97 1134.05 133.118 1130.39 135.368C1126.73 137.618 1122.45 138.743 1117.54 138.743ZM1117.58 130.186C1120.76 130.186 1123.39 129.345 1125.48 127.663C1127.58 125.981 1129.12 123.743 1130.12 120.947C1131.14 118.152 1131.65 115.072 1131.65 111.709C1131.65 108.368 1131.14 105.3 1130.12 102.504C1129.12 99.686 1127.58 97.4247 1125.48 95.7201C1123.39 94.0156 1120.76 93.1633 1117.58 93.1633C1114.37 93.1633 1111.71 94.0156 1109.6 95.7201C1107.51 97.4247 1105.95 99.686 1104.93 102.504C1103.93 105.3 1103.43 108.368 1103.43 111.709C1103.43 115.072 1103.93 118.152 1104.93 120.947C1105.95 123.743 1107.51 125.981 1109.6 127.663C1111.71 129.345 1114.37 130.186 1117.58 130.186ZM1153.33 137.686V85.3224H1163.52V137.686H1153.33ZM1158.48 77.2429C1156.7 77.2429 1155.18 76.6519 1153.91 75.4701C1152.66 74.2656 1152.03 72.8338 1152.03 71.1747C1152.03 69.4929 1152.66 68.061 1153.91 66.8792C1155.18 65.6747 1156.7 65.0724 1158.48 65.0724C1160.25 65.0724 1161.76 65.6747 1163.01 66.8792C1164.28 68.061 1164.92 69.4929 1164.92 71.1747C1164.92 72.8338 1164.28 74.2656 1163.01 75.4701C1161.76 76.6519 1160.25 77.2429 1158.48 77.2429ZM1187.43 106.595V137.686H1177.23V85.3224H1187.02V93.8451H1187.67C1188.87 91.0724 1190.76 88.8451 1193.33 87.1633C1195.92 85.4815 1199.18 84.6406 1203.11 84.6406C1206.68 84.6406 1209.8 85.3906 1212.48 86.8906C1215.17 88.3679 1217.25 90.5724 1218.72 93.5042C1220.2 96.436 1220.94 100.061 1220.94 104.379V137.686H1210.75V105.606C1210.75 101.811 1209.76 98.8451 1207.78 96.7088C1205.8 94.5497 1203.09 93.4701 1199.63 93.4701C1197.27 93.4701 1195.17 93.9815 1193.33 95.0042C1191.51 96.0269 1190.06 97.5269 1189 99.5042C1187.95 101.459 1187.43 103.822 1187.43 106.595ZM1259.05 85.3224V93.5042H1230.45V85.3224H1259.05ZM1238.12 72.7769H1248.31V122.311C1248.31 124.288 1248.61 125.777 1249.2 126.777C1249.79 127.754 1250.55 128.425 1251.48 128.788C1252.44 129.129 1253.47 129.3 1254.59 129.3C1255.4 129.3 1256.12 129.243 1256.73 129.129C1257.35 129.016 1257.83 128.925 1258.17 128.856L1260.01 137.277C1259.42 137.504 1258.58 137.731 1257.48 137.959C1256.39 138.209 1255.03 138.345 1253.39 138.368C1250.71 138.413 1248.21 137.936 1245.89 136.936C1243.58 135.936 1241.7 134.391 1240.27 132.3C1238.84 130.209 1238.12 127.584 1238.12 124.425V72.7769ZM1307.73 137.686V146.345H1263.37V137.686H1307.73ZM1336.54 138.743C1331.63 138.743 1327.35 137.618 1323.69 135.368C1320.03 133.118 1317.19 129.97 1315.17 125.925C1313.14 121.879 1312.13 117.152 1312.13 111.743C1312.13 106.311 1313.14 101.561 1315.17 97.4929C1317.19 93.4247 1320.03 90.2656 1323.69 88.0156C1327.35 85.7656 1331.63 84.6406 1336.54 84.6406C1341.45 84.6406 1345.73 85.7656 1349.39 88.0156C1353.05 90.2656 1355.89 93.4247 1357.92 97.4929C1359.94 101.561 1360.95 106.311 1360.95 111.743C1360.95 117.152 1359.94 121.879 1357.92 125.925C1355.89 129.97 1353.05 133.118 1349.39 135.368C1345.73 137.618 1341.45 138.743 1336.54 138.743ZM1336.58 130.186C1339.76 130.186 1342.39 129.345 1344.48 127.663C1346.58 125.981 1348.12 123.743 1349.12 120.947C1350.14 118.152 1350.65 115.072 1350.65 111.709C1350.65 108.368 1350.14 105.3 1349.12 102.504C1348.12 99.686 1346.58 97.4247 1344.48 95.7201C1342.39 94.0156 1339.76 93.1633 1336.58 93.1633C1333.37 93.1633 1330.71 94.0156 1328.6 95.7201C1326.51 97.4247 1324.95 99.686 1323.93 102.504C1322.93 105.3 1322.43 108.368 1322.43 111.709C1322.43 115.072 1322.93 118.152 1323.93 120.947C1324.95 123.743 1326.51 125.981 1328.6 127.663C1330.71 129.345 1333.37 130.186 1336.58 130.186ZM1397.25 85.3224V93.5042H1367.66V85.3224H1397.25ZM1375.77 137.686V79.2542C1375.77 75.9815 1376.49 73.2656 1377.92 71.1065C1379.35 68.9247 1381.25 67.2997 1383.61 66.2315C1385.98 65.1406 1388.54 64.5951 1391.32 64.5951C1393.36 64.5951 1395.11 64.7656 1396.57 65.1065C1398.02 65.4247 1399.1 65.7201 1399.81 65.9929L1397.42 74.2429C1396.94 74.1065 1396.33 73.9474 1395.58 73.7656C1394.83 73.561 1393.92 73.4588 1392.85 73.4588C1390.37 73.4588 1388.6 74.0724 1387.53 75.2997C1386.49 76.5269 1385.96 78.2997 1385.96 80.6179V137.686H1375.77ZM1443.76 137.686V146.345H1399.4V137.686H1443.76ZM1454.92 137.686V85.3224H1464.77V93.6406H1465.32C1466.27 90.8224 1467.96 88.6065 1470.36 86.9929C1472.8 85.3565 1475.55 84.5383 1478.61 84.5383C1479.25 84.5383 1480 84.561 1480.86 84.6065C1481.75 84.6519 1482.44 84.7088 1482.94 84.7769V94.5269C1482.54 94.4133 1481.81 94.2883 1480.76 94.1519C1479.72 93.9929 1478.67 93.9133 1477.63 93.9133C1475.22 93.9133 1473.07 94.4247 1471.18 95.4474C1469.32 96.4474 1467.84 97.8451 1466.75 99.6406C1465.66 101.413 1465.11 103.436 1465.11 105.709V137.686H1454.92ZM1512.46 138.743C1507.3 138.743 1502.86 137.641 1499.13 135.436C1495.42 133.209 1492.56 130.084 1490.54 126.061C1488.54 122.016 1487.54 117.277 1487.54 111.845C1487.54 106.481 1488.54 101.754 1490.54 97.6633C1492.56 93.5724 1495.38 90.3792 1498.99 88.0838C1502.63 85.7883 1506.88 84.6406 1511.74 84.6406C1514.7 84.6406 1517.56 85.1292 1520.33 86.1065C1523.11 87.0838 1525.59 88.6179 1527.8 90.7088C1530 92.7997 1531.74 95.5156 1533.02 98.8565C1534.29 102.175 1534.92 106.209 1534.92 110.959V114.572H1493.3V106.936H1524.94C1524.94 104.254 1524.39 101.879 1523.3 99.811C1522.21 97.7201 1520.67 96.0724 1518.7 94.8679C1516.74 93.6633 1514.45 93.061 1511.81 93.061C1508.95 93.061 1506.45 93.7656 1504.31 95.1747C1502.2 96.561 1500.56 98.3792 1499.4 100.629C1498.27 102.856 1497.7 105.277 1497.7 107.891V113.856C1497.7 117.356 1498.31 120.334 1499.54 122.788C1500.79 125.243 1502.53 127.118 1504.75 128.413C1506.98 129.686 1509.58 130.322 1512.56 130.322C1514.49 130.322 1516.25 130.05 1517.84 129.504C1519.44 128.936 1520.81 128.095 1521.97 126.981C1523.13 125.868 1524.02 124.493 1524.63 122.856L1534.28 124.595C1533.5 127.436 1532.12 129.925 1530.12 132.061C1528.14 134.175 1525.65 135.822 1522.65 137.004C1519.67 138.163 1516.28 138.743 1512.46 138.743ZM1568.19 158.413C1564.03 158.413 1560.45 157.868 1557.45 156.777C1554.47 155.686 1552.04 154.243 1550.15 152.447C1548.27 150.652 1546.86 148.686 1545.93 146.55L1554.69 142.936C1555.3 143.936 1556.12 144.993 1557.14 146.106C1558.19 147.243 1559.6 148.209 1561.37 149.004C1563.17 149.8 1565.47 150.197 1568.29 150.197C1572.15 150.197 1575.35 149.254 1577.87 147.368C1580.39 145.504 1581.65 142.527 1581.65 138.436V128.141H1581.01C1580.39 129.254 1579.51 130.493 1578.35 131.856C1577.21 133.22 1575.64 134.402 1573.64 135.402C1571.64 136.402 1569.04 136.902 1565.84 136.902C1561.7 136.902 1557.97 135.936 1554.65 134.004C1551.36 132.05 1548.75 129.175 1546.81 125.379C1544.9 121.561 1543.95 116.868 1543.95 111.3C1543.95 105.731 1544.89 100.959 1546.78 96.9815C1548.69 93.0042 1551.3 89.9588 1554.62 87.8451C1557.94 85.7088 1561.7 84.6406 1565.9 84.6406C1569.15 84.6406 1571.78 85.186 1573.78 86.2769C1575.78 87.3451 1577.34 88.5951 1578.45 90.0269C1579.59 91.4588 1580.46 92.7201 1581.08 93.811H1581.83V85.3224H1591.81V138.845C1591.81 143.345 1590.77 147.038 1588.68 149.925C1586.59 152.811 1583.76 154.947 1580.19 156.334C1576.64 157.72 1572.64 158.413 1568.19 158.413ZM1568.09 128.447C1571.02 128.447 1573.5 127.766 1575.52 126.402C1577.56 125.016 1579.11 123.038 1580.15 120.47C1581.22 117.879 1581.76 114.777 1581.76 111.163C1581.76 107.641 1581.23 104.538 1580.19 101.856C1579.14 99.1747 1577.61 97.0838 1575.59 95.5838C1573.56 94.061 1571.06 93.2997 1568.09 93.2997C1565.02 93.2997 1562.46 94.0951 1560.42 95.686C1558.37 97.2542 1556.83 99.3906 1555.78 102.095C1554.76 104.8 1554.25 107.822 1554.25 111.163C1554.25 114.595 1554.77 117.606 1555.81 120.197C1556.86 122.788 1558.4 124.811 1560.45 126.266C1562.52 127.72 1565.06 128.447 1568.09 128.447ZM1620.72 138.845C1617.4 138.845 1614.4 138.231 1611.72 137.004C1609.04 135.754 1606.92 133.947 1605.35 131.584C1603.8 129.22 1603.03 126.322 1603.03 122.891C1603.03 119.936 1603.6 117.504 1604.73 115.595C1605.87 113.686 1607.4 112.175 1609.34 111.061C1611.27 109.947 1613.43 109.106 1615.81 108.538C1618.2 107.97 1620.63 107.538 1623.11 107.243C1626.25 106.879 1628.79 106.584 1630.75 106.356C1632.7 106.106 1634.12 105.709 1635.01 105.163C1635.89 104.618 1636.34 103.731 1636.34 102.504V102.266C1636.34 99.2883 1635.5 96.9815 1633.81 95.3451C1632.15 93.7088 1629.68 92.8906 1626.38 92.8906C1622.95 92.8906 1620.25 93.6519 1618.27 95.1747C1616.31 96.6747 1614.96 98.3451 1614.21 100.186L1604.63 98.0042C1605.77 94.8224 1607.43 92.2542 1609.61 90.2997C1611.81 88.3224 1614.35 86.8906 1617.21 86.0042C1620.08 85.0951 1623.09 84.6406 1626.25 84.6406C1628.34 84.6406 1630.55 84.8906 1632.89 85.3906C1635.26 85.8679 1637.46 86.7542 1639.51 88.0497C1641.58 89.3451 1643.27 91.1974 1644.59 93.6065C1645.9 95.9929 1646.56 99.0951 1646.56 102.913V137.686H1636.61V130.527H1636.2C1635.54 131.845 1634.55 133.141 1633.23 134.413C1631.92 135.686 1630.22 136.743 1628.15 137.584C1626.09 138.425 1623.61 138.845 1620.72 138.845ZM1622.94 130.663C1625.76 130.663 1628.17 130.106 1630.17 128.993C1632.19 127.879 1633.72 126.425 1634.77 124.629C1635.84 122.811 1636.37 120.868 1636.37 118.8V112.05C1636.01 112.413 1635.3 112.754 1634.26 113.072C1633.23 113.368 1632.06 113.629 1630.75 113.856C1629.43 114.061 1628.14 114.254 1626.89 114.436C1625.64 114.595 1624.6 114.731 1623.76 114.845C1621.78 115.095 1619.97 115.516 1618.34 116.106C1616.72 116.697 1615.43 117.55 1614.45 118.663C1613.5 119.754 1613.02 121.209 1613.02 123.027C1613.02 125.55 1613.95 127.459 1615.81 128.754C1617.68 130.027 1620.05 130.663 1622.94 130.663ZM1660.14 137.686V85.3224H1669.99V93.6406H1670.54C1671.49 90.8224 1673.17 88.6065 1675.58 86.9929C1678.02 85.3565 1680.77 84.5383 1683.83 84.5383C1684.47 84.5383 1685.22 84.561 1686.08 84.6065C1686.97 84.6519 1687.66 84.7088 1688.16 84.7769V94.5269C1687.75 94.4133 1687.03 94.2883 1685.98 94.1519C1684.94 93.9929 1683.89 93.9133 1682.84 93.9133C1680.44 93.9133 1678.29 94.4247 1676.4 95.4474C1674.54 96.4474 1673.06 97.8451 1671.97 99.6406C1670.88 101.413 1670.33 103.436 1670.33 105.709V137.686H1660.14ZM1714.71 138.709C1710.48 138.709 1706.71 137.629 1703.39 135.47C1700.1 133.288 1697.51 130.186 1695.62 126.163C1693.76 122.118 1692.83 117.266 1692.83 111.606C1692.83 105.947 1693.77 101.106 1695.65 97.0838C1697.56 93.061 1700.18 89.9815 1703.5 87.8451C1706.81 85.7088 1710.58 84.6406 1714.78 84.6406C1718.03 84.6406 1720.64 85.186 1722.62 86.2769C1724.62 87.3451 1726.17 88.5951 1727.26 90.0269C1728.37 91.4588 1729.23 92.7201 1729.85 93.811H1730.46V67.8679H1740.65V137.686H1730.7V129.538H1729.85C1729.23 130.652 1728.35 131.925 1727.19 133.356C1726.05 134.788 1724.48 136.038 1722.48 137.106C1720.48 138.175 1717.89 138.709 1714.71 138.709ZM1716.96 130.016C1719.89 130.016 1722.37 129.243 1724.39 127.697C1726.44 126.129 1727.98 123.959 1729.03 121.186C1730.1 118.413 1730.63 115.186 1730.63 111.504C1730.63 107.868 1730.11 104.686 1729.06 101.959C1728.02 99.2315 1726.48 97.1065 1724.46 95.5838C1722.44 94.061 1719.94 93.2997 1716.96 93.2997C1713.89 93.2997 1711.34 94.0951 1709.29 95.686C1707.25 97.2769 1705.7 99.4474 1704.65 102.197C1703.63 104.947 1703.12 108.05 1703.12 111.504C1703.12 115.004 1703.64 118.152 1704.69 120.947C1705.73 123.743 1707.28 125.959 1709.33 127.595C1711.39 129.209 1713.94 130.016 1716.96 130.016Z" fill="black"/>
<path d="M541.885 643.149V571.149H551.84V579.637H552.692C553.283 578.546 554.135 577.285 555.249 575.853C556.363 574.421 557.908 573.171 559.885 572.103C561.863 571.012 564.476 570.467 567.726 570.467C571.954 570.467 575.726 571.535 579.045 573.671C582.363 575.808 584.965 578.887 586.851 582.91C588.76 586.933 589.715 591.774 589.715 597.433C589.715 603.092 588.772 607.944 586.885 611.989C584.999 616.012 582.408 619.114 579.113 621.296C575.817 623.455 572.056 624.535 567.829 624.535C564.647 624.535 562.045 624.001 560.022 622.933C558.022 621.864 556.454 620.614 555.317 619.183C554.181 617.751 553.306 616.478 552.692 615.364H552.079V643.149H541.885ZM551.874 597.33C551.874 601.012 552.408 604.239 553.476 607.012C554.545 609.785 556.09 611.955 558.113 613.524C560.135 615.069 562.613 615.842 565.545 615.842C568.59 615.842 571.135 615.035 573.181 613.421C575.226 611.785 576.772 609.569 577.817 606.774C578.885 603.978 579.42 600.83 579.42 597.33C579.42 593.876 578.897 590.774 577.851 588.024C576.829 585.274 575.283 583.103 573.215 581.512C571.17 579.921 568.613 579.126 565.545 579.126C562.59 579.126 560.09 579.887 558.045 581.41C556.022 582.933 554.488 585.058 553.442 587.785C552.397 590.512 551.874 593.694 551.874 597.33ZM623.192 624.569C618.283 624.569 613.999 623.444 610.34 621.194C606.681 618.944 603.84 615.796 601.817 611.751C599.795 607.705 598.783 602.978 598.783 597.569C598.783 592.137 599.795 587.387 601.817 583.319C603.84 579.251 606.681 576.092 610.34 573.842C613.999 571.592 618.283 570.467 623.192 570.467C628.101 570.467 632.385 571.592 636.045 573.842C639.704 576.092 642.545 579.251 644.567 583.319C646.59 587.387 647.601 592.137 647.601 597.569C647.601 602.978 646.59 607.705 644.567 611.751C642.545 615.796 639.704 618.944 636.045 621.194C632.385 623.444 628.101 624.569 623.192 624.569ZM623.226 616.012C626.408 616.012 629.045 615.171 631.135 613.489C633.226 611.808 634.772 609.569 635.772 606.774C636.795 603.978 637.306 600.899 637.306 597.535C637.306 594.194 636.795 591.126 635.772 588.33C634.772 585.512 633.226 583.251 631.135 581.546C629.045 579.842 626.408 578.989 623.226 578.989C620.022 578.989 617.363 579.842 615.249 581.546C613.158 583.251 611.601 585.512 610.579 588.33C609.579 591.126 609.079 594.194 609.079 597.535C609.079 600.899 609.579 603.978 610.579 606.774C611.601 609.569 613.158 611.808 615.249 613.489C617.363 615.171 620.022 616.012 623.226 616.012ZM658.979 623.512V571.149H669.172V623.512H658.979ZM664.127 563.069C662.354 563.069 660.831 562.478 659.559 561.296C658.309 560.092 657.684 558.66 657.684 557.001C657.684 555.319 658.309 553.887 659.559 552.705C660.831 551.501 662.354 550.899 664.127 550.899C665.9 550.899 667.411 551.501 668.661 552.705C669.934 553.887 670.57 555.319 670.57 557.001C670.57 558.66 669.934 560.092 668.661 561.296C667.411 562.478 665.9 563.069 664.127 563.069ZM693.079 592.421V623.512H682.885V571.149H692.67V579.671H693.317C694.522 576.899 696.408 574.671 698.976 572.989C701.567 571.308 704.829 570.467 708.76 570.467C712.329 570.467 715.454 571.217 718.135 572.717C720.817 574.194 722.897 576.399 724.374 579.33C725.851 582.262 726.59 585.887 726.59 590.205V623.512H716.397V591.433C716.397 587.637 715.408 584.671 713.431 582.535C711.454 580.376 708.738 579.296 705.283 579.296C702.92 579.296 700.817 579.808 698.976 580.83C697.158 581.853 695.715 583.353 694.647 585.33C693.601 587.285 693.079 589.649 693.079 592.421ZM764.704 571.149V579.33H736.101V571.149H764.704ZM743.772 558.603H753.965V608.137C753.965 610.114 754.26 611.603 754.851 612.603C755.442 613.58 756.204 614.251 757.135 614.614C758.09 614.955 759.124 615.126 760.238 615.126C761.056 615.126 761.772 615.069 762.385 614.955C762.999 614.842 763.476 614.751 763.817 614.683L765.658 623.103C765.067 623.33 764.226 623.558 763.135 623.785C762.045 624.035 760.681 624.171 759.045 624.194C756.363 624.239 753.863 623.762 751.545 622.762C749.226 621.762 747.351 620.217 745.92 618.126C744.488 616.035 743.772 613.41 743.772 610.251V558.603ZM813.377 623.512V632.171H769.025V623.512H813.377ZM842.192 624.569C837.283 624.569 832.999 623.444 829.34 621.194C825.681 618.944 822.84 615.796 820.817 611.751C818.795 607.705 817.783 602.978 817.783 597.569C817.783 592.137 818.795 587.387 820.817 583.319C822.84 579.251 825.681 576.092 829.34 573.842C832.999 571.592 837.283 570.467 842.192 570.467C847.101 570.467 851.385 571.592 855.045 573.842C858.704 576.092 861.545 579.251 863.567 583.319C865.59 587.387 866.601 592.137 866.601 597.569C866.601 602.978 865.59 607.705 863.567 611.751C861.545 615.796 858.704 618.944 855.045 621.194C851.385 623.444 847.101 624.569 842.192 624.569ZM842.226 616.012C845.408 616.012 848.045 615.171 850.135 613.489C852.226 611.808 853.772 609.569 854.772 606.774C855.795 603.978 856.306 600.899 856.306 597.535C856.306 594.194 855.795 591.126 854.772 588.33C853.772 585.512 852.226 583.251 850.135 581.546C848.045 579.842 845.408 578.989 842.226 578.989C839.022 578.989 836.363 579.842 834.249 581.546C832.158 583.251 830.601 585.512 829.579 588.33C828.579 591.126 828.079 594.194 828.079 597.535C828.079 600.899 828.579 603.978 829.579 606.774C830.601 609.569 832.158 611.808 834.249 613.489C836.363 615.171 839.022 616.012 842.226 616.012ZM902.9 571.149V579.33H873.309V571.149H902.9ZM881.422 623.512V565.08C881.422 561.808 882.138 559.092 883.57 556.933C885.002 554.751 886.9 553.126 889.263 552.058C891.627 550.967 894.195 550.421 896.968 550.421C899.013 550.421 900.763 550.592 902.218 550.933C903.672 551.251 904.752 551.546 905.456 551.819L903.07 560.069C902.593 559.933 901.979 559.774 901.229 559.592C900.479 559.387 899.57 559.285 898.502 559.285C896.025 559.285 894.252 559.899 893.184 561.126C892.138 562.353 891.616 564.126 891.616 566.444V623.512H881.422ZM949.408 623.512V632.171H905.056V623.512H949.408ZM960.573 623.512V571.149H970.425V579.467H970.971C971.925 576.649 973.607 574.433 976.016 572.819C978.448 571.183 981.198 570.364 984.266 570.364C984.903 570.364 985.653 570.387 986.516 570.433C987.403 570.478 988.096 570.535 988.596 570.603V580.353C988.187 580.239 987.459 580.114 986.414 579.978C985.368 579.819 984.323 579.739 983.278 579.739C980.868 579.739 978.721 580.251 976.834 581.274C974.971 582.274 973.493 583.671 972.403 585.467C971.312 587.239 970.766 589.262 970.766 591.535V623.512H960.573ZM1018.11 624.569C1012.95 624.569 1008.51 623.467 1004.78 621.262C1001.08 619.035 998.212 615.91 996.189 611.887C994.189 607.842 993.189 603.103 993.189 597.671C993.189 592.308 994.189 587.58 996.189 583.489C998.212 579.399 1001.03 576.205 1004.64 573.91C1008.28 571.614 1012.53 570.467 1017.39 570.467C1020.35 570.467 1023.21 570.955 1025.98 571.933C1028.76 572.91 1031.25 574.444 1033.45 576.535C1035.66 578.626 1037.39 581.342 1038.67 584.683C1039.94 588.001 1040.58 592.035 1040.58 596.785V600.399H998.951V592.762H1030.59C1030.59 590.08 1030.04 587.705 1028.95 585.637C1027.86 583.546 1026.33 581.899 1024.35 580.694C1022.39 579.489 1020.1 578.887 1017.46 578.887C1014.6 578.887 1012.1 579.592 1009.96 581.001C1007.85 582.387 1006.21 584.205 1005.05 586.455C1003.92 588.683 1003.35 591.103 1003.35 593.717V599.683C1003.35 603.183 1003.96 606.16 1005.19 608.614C1006.44 611.069 1008.18 612.944 1010.41 614.239C1012.63 615.512 1015.23 616.149 1018.21 616.149C1020.14 616.149 1021.91 615.876 1023.5 615.33C1025.09 614.762 1026.46 613.921 1027.62 612.808C1028.78 611.694 1029.67 610.319 1030.28 608.683L1039.93 610.421C1039.16 613.262 1037.77 615.751 1035.77 617.887C1033.79 620.001 1031.3 621.649 1028.3 622.83C1025.33 623.989 1021.93 624.569 1018.11 624.569ZM1073.84 644.239C1069.68 644.239 1066.1 643.694 1063.1 642.603C1060.12 641.512 1057.69 640.069 1055.81 638.274C1053.92 636.478 1052.51 634.512 1051.58 632.376L1060.34 628.762C1060.95 629.762 1061.77 630.819 1062.79 631.933C1063.84 633.069 1065.25 634.035 1067.02 634.83C1068.82 635.626 1071.12 636.024 1073.94 636.024C1077.81 636.024 1081 635.08 1083.52 633.194C1086.04 631.33 1087.31 628.353 1087.31 624.262V613.967H1086.66C1086.04 615.08 1085.16 616.319 1084 617.683C1082.86 619.046 1081.29 620.228 1079.29 621.228C1077.29 622.228 1074.69 622.728 1071.49 622.728C1067.35 622.728 1063.62 621.762 1060.31 619.83C1057.01 617.876 1054.4 615.001 1052.47 611.205C1050.56 607.387 1049.6 602.694 1049.6 597.126C1049.6 591.558 1050.54 586.785 1052.43 582.808C1054.34 578.83 1056.95 575.785 1060.27 573.671C1063.59 571.535 1067.35 570.467 1071.56 570.467C1074.81 570.467 1077.43 571.012 1079.43 572.103C1081.43 573.171 1082.99 574.421 1084.1 575.853C1085.24 577.285 1086.11 578.546 1086.73 579.637H1087.48V571.149H1097.47V624.671C1097.47 629.171 1096.42 632.864 1094.33 635.751C1092.24 638.637 1089.41 640.774 1085.84 642.16C1082.29 643.546 1078.29 644.239 1073.84 644.239ZM1073.74 614.274C1076.67 614.274 1079.15 613.592 1081.17 612.228C1083.22 610.842 1084.76 608.864 1085.81 606.296C1086.87 603.705 1087.41 600.603 1087.41 596.989C1087.41 593.467 1086.89 590.364 1085.84 587.683C1084.79 585.001 1083.26 582.91 1081.24 581.41C1079.22 579.887 1076.72 579.126 1073.74 579.126C1070.67 579.126 1068.11 579.921 1066.07 581.512C1064.02 583.08 1062.48 585.217 1061.43 587.921C1060.41 590.626 1059.9 593.649 1059.9 596.989C1059.9 600.421 1060.42 603.433 1061.47 606.024C1062.51 608.614 1064.06 610.637 1066.1 612.092C1068.17 613.546 1070.72 614.274 1073.74 614.274ZM1126.37 624.671C1123.06 624.671 1120.06 624.058 1117.37 622.83C1114.69 621.58 1112.57 619.774 1111 617.41C1109.45 615.046 1108.68 612.149 1108.68 608.717C1108.68 605.762 1109.25 603.33 1110.39 601.421C1111.52 599.512 1113.06 598.001 1114.99 596.887C1116.92 595.774 1119.08 594.933 1121.47 594.364C1123.85 593.796 1126.28 593.364 1128.76 593.069C1131.9 592.705 1134.44 592.41 1136.4 592.183C1138.35 591.933 1139.77 591.535 1140.66 590.989C1141.54 590.444 1141.99 589.558 1141.99 588.33V588.092C1141.99 585.114 1141.15 582.808 1139.47 581.171C1137.81 579.535 1135.33 578.717 1132.03 578.717C1128.6 578.717 1125.9 579.478 1123.92 581.001C1121.97 582.501 1120.61 584.171 1119.86 586.012L1110.28 583.83C1111.42 580.649 1113.08 578.08 1115.26 576.126C1117.47 574.149 1120 572.717 1122.86 571.83C1125.73 570.921 1128.74 570.467 1131.9 570.467C1133.99 570.467 1136.2 570.717 1138.54 571.217C1140.91 571.694 1143.11 572.58 1145.16 573.876C1147.23 575.171 1148.92 577.024 1150.24 579.433C1151.56 581.819 1152.22 584.921 1152.22 588.739V623.512H1142.26V616.353H1141.85C1141.19 617.671 1140.2 618.967 1138.89 620.239C1137.57 621.512 1135.87 622.569 1133.81 623.41C1131.74 624.251 1129.26 624.671 1126.37 624.671ZM1128.59 616.489C1131.41 616.489 1133.82 615.933 1135.82 614.819C1137.84 613.705 1139.37 612.251 1140.42 610.455C1141.49 608.637 1142.02 606.694 1142.02 604.626V597.876C1141.66 598.239 1140.95 598.58 1139.91 598.899C1138.89 599.194 1137.72 599.455 1136.4 599.683C1135.08 599.887 1133.79 600.08 1132.54 600.262C1131.29 600.421 1130.25 600.558 1129.41 600.671C1127.43 600.921 1125.62 601.342 1123.99 601.933C1122.37 602.524 1121.08 603.376 1120.1 604.489C1119.15 605.58 1118.67 607.035 1118.67 608.853C1118.67 611.376 1119.6 613.285 1121.47 614.58C1123.33 615.853 1125.7 616.489 1128.59 616.489ZM1165.79 623.512V571.149H1175.64V579.467H1176.19C1177.14 576.649 1178.83 574.433 1181.23 572.819C1183.67 571.183 1186.42 570.364 1189.48 570.364C1190.12 570.364 1190.87 570.387 1191.73 570.433C1192.62 570.478 1193.31 570.535 1193.81 570.603V580.353C1193.41 580.239 1192.68 580.114 1191.63 579.978C1190.59 579.819 1189.54 579.739 1188.5 579.739C1186.09 579.739 1183.94 580.251 1182.05 581.274C1180.19 582.274 1178.71 583.671 1177.62 585.467C1176.53 587.239 1175.98 589.262 1175.98 591.535V623.512H1165.79ZM1220.36 624.535C1216.14 624.535 1212.36 623.455 1209.04 621.296C1205.75 619.114 1203.16 616.012 1201.27 611.989C1199.41 607.944 1198.48 603.092 1198.48 597.433C1198.48 591.774 1199.42 586.933 1201.31 582.91C1203.22 578.887 1205.83 575.808 1209.15 573.671C1212.47 571.535 1216.23 570.467 1220.43 570.467C1223.68 570.467 1226.29 571.012 1228.27 572.103C1230.27 573.171 1231.82 574.421 1232.91 575.853C1234.02 577.285 1234.89 578.546 1235.5 579.637H1236.11V553.694H1246.31V623.512H1236.35V615.364H1235.5C1234.89 616.478 1234 617.751 1232.84 619.183C1231.7 620.614 1230.14 621.864 1228.14 622.933C1226.14 624.001 1223.54 624.535 1220.36 624.535ZM1222.61 615.842C1225.54 615.842 1228.02 615.069 1230.04 613.524C1232.09 611.955 1233.64 609.785 1234.68 607.012C1235.75 604.239 1236.28 601.012 1236.28 597.33C1236.28 593.694 1235.76 590.512 1234.72 587.785C1233.67 585.058 1232.14 582.933 1230.11 581.41C1228.09 579.887 1225.59 579.126 1222.61 579.126C1219.54 579.126 1216.99 579.921 1214.94 581.512C1212.9 583.103 1211.35 585.274 1210.31 588.024C1209.28 590.774 1208.77 593.876 1208.77 597.33C1208.77 600.83 1209.29 603.978 1210.34 606.774C1211.39 609.569 1212.93 611.785 1214.98 613.421C1217.04 615.035 1219.59 615.842 1222.61 615.842Z" fill="black"/>
<line x1="2274.41" y1="930.508" x2="1454.1" y2="930.508" stroke="black" stroke-opacity="0.66" stroke-width="19" stroke-dasharray="40 40"/>
<line x1="2260.5" y1="288.026" x2="1440.19" y2="288.026" stroke="black" stroke-opacity="0.66" stroke-width="19" stroke-dasharray="40 40"/>
<line x1="1444.6" y1="921.008" x2="1444.6" y2="353.719" stroke="black" stroke-opacity="0.66" stroke-width="19" stroke-dasharray="40 40"/>
<line x1="2264.91" y1="877.592" x2="2264.91" y2="310.303" stroke="black" stroke-opacity="0.66" stroke-width="19" stroke-dasharray="40 40"/>
<circle cx="1454.1" cy="278.526" r="31.2771" fill="#7B61FF" stroke="black"/>
<circle cx="1440.19" cy="685.798" r="31.2771" fill="#7B61FF" stroke="black"/>
<path d="M1410.13 252.497C1413.31 251.546 1415.11 248.203 1414.16 245.028L1398.68 193.296C1397.73 190.121 1394.38 188.318 1391.21 189.268C1388.03 190.219 1386.23 193.562 1387.18 196.737L1400.95 242.721L1354.96 256.485C1351.79 257.435 1349.98 260.779 1350.93 263.954C1351.88 267.128 1355.23 268.932 1358.4 267.981L1410.13 252.497ZM1298.67 194.385L1405.57 252.03L1411.26 241.467L1304.37 183.823L1298.67 194.385Z" fill="black"/>
<path d="M1383.27 671.934C1386.44 670.984 1388.25 667.64 1387.3 664.466L1371.81 612.733C1370.86 609.559 1367.52 607.756 1364.34 608.706C1361.17 609.656 1359.37 613 1360.32 616.174L1374.08 662.159L1328.1 675.923C1324.92 676.873 1323.12 680.217 1324.07 683.391C1325.02 686.566 1328.36 688.369 1331.54 687.419L1383.27 671.934ZM1271.81 613.823L1378.7 671.467L1384.4 660.905L1277.5 603.26L1271.81 613.823Z" fill="black"/>
</svg>
