<svg width="4154" height="1482" viewBox="0 0 4154 1482" fill="none" xmlns="http://www.w3.org/2000/svg">
<rect width="4154" height="1482" fill="white"/>
<rect x="51.561" y="66.4346" width="2141.66" height="1349.37" fill="#D9D9D9" stroke="#939090" stroke-width="19"/>
<rect x="2193.22" y="301.646" width="1819.79" height="1114.16" fill="#D9D9D9" stroke="#939090" stroke-width="19"/>
<path d="M947.592 720.946C947.319 718.196 946.149 716.06 944.081 714.537C942.013 713.014 939.206 712.253 935.66 712.253C933.251 712.253 931.217 712.594 929.558 713.275C927.899 713.935 926.626 714.855 925.74 716.037C924.876 717.219 924.444 718.56 924.444 720.06C924.399 721.31 924.66 722.4 925.228 723.332C925.819 724.264 926.626 725.071 927.649 725.753C928.672 726.412 929.853 726.991 931.194 727.491C932.535 727.969 933.967 728.378 935.49 728.719L941.763 730.219C944.808 730.9 947.603 731.81 950.149 732.946C952.694 734.082 954.899 735.48 956.763 737.139C958.626 738.798 960.069 740.753 961.092 743.003C962.138 745.253 962.672 747.832 962.694 750.741C962.672 755.014 961.581 758.719 959.422 761.855C957.285 764.969 954.194 767.389 950.149 769.116C946.126 770.821 941.274 771.673 935.592 771.673C929.956 771.673 925.047 770.81 920.865 769.082C916.706 767.355 913.456 764.798 911.115 761.412C908.797 758.003 907.581 753.787 907.467 748.764H921.751C921.91 751.105 922.581 753.06 923.763 754.628C924.967 756.173 926.569 757.344 928.569 758.139C930.592 758.912 932.876 759.298 935.422 759.298C937.922 759.298 940.092 758.935 941.933 758.207C943.797 757.48 945.24 756.469 946.263 755.173C947.285 753.878 947.797 752.389 947.797 750.707C947.797 749.139 947.331 747.821 946.399 746.753C945.49 745.685 944.149 744.775 942.376 744.025C940.626 743.275 938.478 742.594 935.933 741.98L928.331 740.071C922.444 738.639 917.797 736.4 914.388 733.355C910.978 730.31 909.285 726.207 909.308 721.048C909.285 716.821 910.41 713.128 912.683 709.969C914.978 706.81 918.126 704.344 922.126 702.571C926.126 700.798 930.672 699.912 935.763 699.912C940.944 699.912 945.467 700.798 949.331 702.571C953.217 704.344 956.24 706.81 958.399 709.969C960.558 713.128 961.672 716.787 961.74 720.946H947.592ZM996.01 771.707C990.646 771.707 986.032 770.571 982.169 768.298C978.328 766.003 975.373 762.821 973.305 758.753C971.26 754.685 970.237 750.003 970.237 744.707C970.237 739.344 971.271 734.639 973.339 730.594C975.43 726.525 978.396 723.355 982.237 721.082C986.078 718.787 990.646 717.639 995.942 717.639C1000.51 717.639 1004.51 718.469 1007.94 720.128C1011.37 721.787 1014.09 724.116 1016.09 727.116C1018.09 730.116 1019.19 733.639 1019.4 737.685H1005.69C1005.31 735.071 1004.28 732.969 1002.62 731.378C1000.99 729.764 998.839 728.957 996.18 728.957C993.93 728.957 991.964 729.571 990.282 730.798C988.623 732.003 987.328 733.764 986.396 736.082C985.464 738.4 984.998 741.207 984.998 744.503C984.998 747.844 985.453 750.685 986.362 753.025C987.294 755.366 988.601 757.15 990.282 758.378C991.964 759.605 993.93 760.219 996.18 760.219C997.839 760.219 999.328 759.878 1000.65 759.196C1001.99 758.514 1003.09 757.525 1003.95 756.23C1004.84 754.912 1005.42 753.332 1005.69 751.491H1019.4C1019.17 755.491 1018.08 759.014 1016.12 762.06C1014.19 765.082 1011.52 767.446 1008.11 769.15C1004.7 770.855 1000.67 771.707 996.01 771.707ZM1028.69 770.685V718.321H1042.77V727.457H1043.32C1044.27 724.207 1045.88 721.753 1048.13 720.094C1050.38 718.412 1052.97 717.571 1055.9 717.571C1056.63 717.571 1057.41 717.616 1058.25 717.707C1059.09 717.798 1059.83 717.923 1060.47 718.082V730.969C1059.79 730.764 1058.84 730.582 1057.64 730.423C1056.43 730.264 1055.33 730.185 1054.33 730.185C1052.19 730.185 1050.29 730.65 1048.6 731.582C1046.94 732.491 1045.63 733.764 1044.65 735.4C1043.69 737.037 1043.22 738.923 1043.22 741.06V770.685H1028.69ZM1089.4 771.707C1084.02 771.707 1079.38 770.616 1075.49 768.435C1071.63 766.23 1068.65 763.116 1066.56 759.094C1064.47 755.048 1063.42 750.264 1063.42 744.741C1063.42 739.355 1064.47 734.628 1066.56 730.56C1068.65 726.491 1071.59 723.321 1075.39 721.048C1079.21 718.775 1083.69 717.639 1088.82 717.639C1092.28 717.639 1095.49 718.196 1098.47 719.31C1101.47 720.4 1104.08 722.048 1106.31 724.253C1108.56 726.457 1110.31 729.23 1111.56 732.571C1112.81 735.889 1113.44 739.775 1113.44 744.23V748.219H1069.22V739.219H1099.77C1099.77 737.128 1099.31 735.275 1098.4 733.662C1097.49 732.048 1096.23 730.787 1094.62 729.878C1093.03 728.946 1091.17 728.48 1089.06 728.48C1086.86 728.48 1084.9 728.991 1083.2 730.014C1081.52 731.014 1080.2 732.366 1079.24 734.071C1078.29 735.753 1077.8 737.628 1077.78 739.696V748.253C1077.78 750.844 1078.25 753.082 1079.21 754.969C1080.19 756.855 1081.56 758.31 1083.33 759.332C1085.11 760.355 1087.21 760.866 1089.64 760.866C1091.25 760.866 1092.73 760.639 1094.07 760.185C1095.41 759.73 1096.56 759.048 1097.52 758.139C1098.47 757.23 1099.2 756.116 1099.7 754.798L1113.13 755.685C1112.45 758.912 1111.05 761.73 1108.94 764.139C1106.84 766.525 1104.14 768.389 1100.82 769.73C1097.53 771.048 1093.72 771.707 1089.4 771.707ZM1146.78 771.707C1141.39 771.707 1136.75 770.616 1132.87 768.435C1129 766.23 1126.03 763.116 1123.94 759.094C1121.84 755.048 1120.8 750.264 1120.8 744.741C1120.8 739.355 1121.84 734.628 1123.94 730.56C1126.03 726.491 1128.97 723.321 1132.77 721.048C1136.58 718.775 1141.06 717.639 1146.2 717.639C1149.65 717.639 1152.87 718.196 1155.84 719.31C1158.84 720.4 1161.46 722.048 1163.69 724.253C1165.94 726.457 1167.69 729.23 1168.94 732.571C1170.19 735.889 1170.81 739.775 1170.81 744.23V748.219H1126.59V739.219H1157.14C1157.14 737.128 1156.69 735.275 1155.78 733.662C1154.87 732.048 1153.61 730.787 1151.99 729.878C1150.4 728.946 1148.55 728.48 1146.44 728.48C1144.23 728.48 1142.28 728.991 1140.57 730.014C1138.89 731.014 1137.57 732.366 1136.62 734.071C1135.66 735.753 1135.17 737.628 1135.15 739.696V748.253C1135.15 750.844 1135.63 753.082 1136.58 754.969C1137.56 756.855 1138.94 758.31 1140.71 759.332C1142.48 760.355 1144.58 760.866 1147.02 760.866C1148.63 760.866 1150.11 760.639 1151.45 760.185C1152.79 759.73 1153.94 759.048 1154.89 758.139C1155.84 757.23 1156.57 756.116 1157.07 754.798L1170.5 755.685C1169.82 758.912 1168.42 761.73 1166.31 764.139C1164.22 766.525 1161.52 768.389 1158.2 769.73C1154.9 771.048 1151.09 771.707 1146.78 771.707ZM1194.81 740.412V770.685H1180.29V718.321H1194.13V727.56H1194.74C1195.9 724.514 1197.84 722.105 1200.57 720.332C1203.3 718.537 1206.61 717.639 1210.49 717.639C1214.13 717.639 1217.3 718.435 1220 720.025C1222.71 721.616 1224.81 723.889 1226.31 726.844C1227.81 729.775 1228.56 733.275 1228.56 737.344V770.685H1214.04V739.935C1214.06 736.73 1213.24 734.23 1211.58 732.435C1209.92 730.616 1207.64 729.707 1204.73 729.707C1202.78 729.707 1201.05 730.128 1199.55 730.969C1198.07 731.81 1196.91 733.037 1196.07 734.65C1195.25 736.241 1194.83 738.162 1194.81 740.412ZM1292.46 700.866V770.685H1277.7V714.878H1277.29L1261.31 724.9V711.81L1278.59 700.866H1292.46Z" fill="#8B8B8B"/>
<path d="M2928.32 838.551C2928.04 835.801 2926.87 833.665 2924.8 832.142C2922.74 830.619 2919.93 829.858 2916.38 829.858C2913.98 829.858 2911.94 830.199 2910.28 830.88C2908.62 831.54 2907.35 832.46 2906.46 833.642C2905.6 834.824 2905.17 836.165 2905.17 837.665C2905.12 838.915 2905.38 840.005 2905.95 840.937C2906.54 841.869 2907.35 842.676 2908.37 843.358C2909.4 844.017 2910.58 844.596 2911.92 845.096C2913.26 845.574 2914.69 845.983 2916.21 846.324L2922.49 847.824C2925.53 848.505 2928.33 849.415 2930.87 850.551C2933.42 851.687 2935.62 853.085 2937.49 854.744C2939.35 856.403 2940.79 858.358 2941.82 860.608C2942.86 862.858 2943.4 865.437 2943.42 868.346C2943.4 872.619 2942.3 876.324 2940.15 879.46C2938.01 882.574 2934.92 884.994 2930.87 886.721C2926.85 888.426 2922 889.278 2916.32 889.278C2910.68 889.278 2905.77 888.415 2901.59 886.687C2897.43 884.96 2894.18 882.403 2891.84 879.017C2889.52 875.608 2888.3 871.392 2888.19 866.369H2902.48C2902.63 868.71 2903.3 870.665 2904.49 872.233C2905.69 873.778 2907.29 874.949 2909.29 875.744C2911.32 876.517 2913.6 876.903 2916.15 876.903C2918.65 876.903 2920.82 876.54 2922.66 875.812C2924.52 875.085 2925.96 874.074 2926.99 872.778C2928.01 871.483 2928.52 869.994 2928.52 868.312C2928.52 866.744 2928.05 865.426 2927.12 864.358C2926.21 863.29 2924.87 862.38 2923.1 861.63C2921.35 860.88 2919.2 860.199 2916.66 859.585L2909.05 857.676C2903.17 856.244 2898.52 854.005 2895.11 850.96C2891.7 847.915 2890.01 843.812 2890.03 838.653C2890.01 834.426 2891.13 830.733 2893.41 827.574C2895.7 824.415 2898.85 821.949 2902.85 820.176C2906.85 818.403 2911.4 817.517 2916.49 817.517C2921.67 817.517 2926.19 818.403 2930.05 820.176C2933.94 821.949 2936.96 824.415 2939.12 827.574C2941.28 830.733 2942.4 834.392 2942.46 838.551H2928.32ZM2976.73 889.312C2971.37 889.312 2966.76 888.176 2962.89 885.903C2959.05 883.608 2956.1 880.426 2954.03 876.358C2951.98 872.29 2950.96 867.608 2950.96 862.312C2950.96 856.949 2952 852.244 2954.06 848.199C2956.15 844.13 2959.12 840.96 2962.96 838.687C2966.8 836.392 2971.37 835.244 2976.67 835.244C2981.23 835.244 2985.23 836.074 2988.67 837.733C2992.1 839.392 2994.81 841.721 2996.81 844.721C2998.81 847.721 2999.92 851.244 3000.12 855.29H2986.42C2986.03 852.676 2985.01 850.574 2983.35 848.983C2981.71 847.369 2979.56 846.562 2976.9 846.562C2974.65 846.562 2972.69 847.176 2971.01 848.403C2969.35 849.608 2968.05 851.369 2967.12 853.687C2966.19 856.005 2965.72 858.812 2965.72 862.108C2965.72 865.449 2966.18 868.29 2967.09 870.63C2968.02 872.971 2969.32 874.755 2971.01 875.983C2972.69 877.21 2974.65 877.824 2976.9 877.824C2978.56 877.824 2980.05 877.483 2981.37 876.801C2982.71 876.119 2983.81 875.13 2984.68 873.835C2985.56 872.517 2986.14 870.937 2986.42 869.096H3000.12C2999.89 873.096 2998.8 876.619 2996.85 879.665C2994.92 882.687 2992.25 885.051 2988.84 886.755C2985.43 888.46 2981.39 889.312 2976.73 889.312ZM3009.42 888.29V835.926H3023.5V845.062H3024.04C3025 841.812 3026.6 839.358 3028.85 837.699C3031.1 836.017 3033.69 835.176 3036.62 835.176C3037.35 835.176 3038.13 835.221 3038.98 835.312C3039.82 835.403 3040.55 835.528 3041.19 835.687V848.574C3040.51 848.369 3039.57 848.187 3038.36 848.028C3037.16 847.869 3036.05 847.79 3035.05 847.79C3032.92 847.79 3031.01 848.255 3029.33 849.187C3027.67 850.096 3026.35 851.369 3025.37 853.005C3024.42 854.642 3023.94 856.528 3023.94 858.665V888.29H3009.42ZM3070.13 889.312C3064.74 889.312 3060.1 888.221 3056.22 886.04C3052.35 883.835 3049.38 880.721 3047.28 876.699C3045.19 872.653 3044.15 867.869 3044.15 862.346C3044.15 856.96 3045.19 852.233 3047.28 848.165C3049.38 844.096 3052.32 840.926 3056.11 838.653C3059.93 836.38 3064.41 835.244 3069.55 835.244C3073 835.244 3076.22 835.801 3079.19 836.915C3082.19 838.005 3084.81 839.653 3087.03 841.858C3089.28 844.062 3091.03 846.835 3092.28 850.176C3093.53 853.494 3094.16 857.38 3094.16 861.835V865.824H3049.94V856.824H3080.49C3080.49 854.733 3080.03 852.88 3079.13 851.267C3078.22 849.653 3076.96 848.392 3075.34 847.483C3073.75 846.551 3071.9 846.085 3069.78 846.085C3067.58 846.085 3065.63 846.596 3063.92 847.619C3062.24 848.619 3060.92 849.971 3059.97 851.676C3059.01 853.358 3058.52 855.233 3058.5 857.301V865.858C3058.5 868.449 3058.98 870.687 3059.93 872.574C3060.91 874.46 3062.28 875.915 3064.06 876.937C3065.83 877.96 3067.93 878.471 3070.36 878.471C3071.98 878.471 3073.46 878.244 3074.8 877.79C3076.14 877.335 3077.28 876.653 3078.24 875.744C3079.19 874.835 3079.92 873.721 3080.42 872.403L3093.85 873.29C3093.17 876.517 3091.77 879.335 3089.66 881.744C3087.57 884.13 3084.86 885.994 3081.55 887.335C3078.25 888.653 3074.44 889.312 3070.13 889.312ZM3127.5 889.312C3122.11 889.312 3117.48 888.221 3113.59 886.04C3109.73 883.835 3106.75 880.721 3104.66 876.699C3102.57 872.653 3101.52 867.869 3101.52 862.346C3101.52 856.96 3102.57 852.233 3104.66 848.165C3106.75 844.096 3109.69 840.926 3113.49 838.653C3117.31 836.38 3121.78 835.244 3126.92 835.244C3130.38 835.244 3133.59 835.801 3136.57 836.915C3139.57 838.005 3142.18 839.653 3144.41 841.858C3146.66 844.062 3148.41 846.835 3149.66 850.176C3150.91 853.494 3151.53 857.38 3151.53 861.835V865.824H3107.32V856.824H3137.86C3137.86 854.733 3137.41 852.88 3136.5 851.267C3135.59 849.653 3134.33 848.392 3132.72 847.483C3131.13 846.551 3129.27 846.085 3127.16 846.085C3124.96 846.085 3123 846.596 3121.3 847.619C3119.61 848.619 3118.3 849.971 3117.34 851.676C3116.39 853.358 3115.9 855.233 3115.88 857.301V865.858C3115.88 868.449 3116.35 870.687 3117.31 872.574C3118.28 874.46 3119.66 875.915 3121.43 876.937C3123.21 877.96 3125.31 878.471 3127.74 878.471C3129.35 878.471 3130.83 878.244 3132.17 877.79C3133.51 877.335 3134.66 876.653 3135.61 875.744C3136.57 874.835 3137.3 873.721 3137.8 872.403L3151.23 873.29C3150.55 876.517 3149.15 879.335 3147.03 881.744C3144.94 884.13 3142.24 885.994 3138.92 887.335C3135.63 888.653 3131.82 889.312 3127.5 889.312ZM3175.53 858.017V888.29H3161.01V835.926H3174.85V845.165H3175.47C3176.63 842.119 3178.57 839.71 3181.3 837.937C3184.02 836.142 3187.33 835.244 3191.22 835.244C3194.85 835.244 3198.02 836.04 3200.73 837.63C3203.43 839.221 3205.53 841.494 3207.03 844.449C3208.53 847.38 3209.28 850.88 3209.28 854.949V888.29H3194.76V857.54C3194.78 854.335 3193.97 851.835 3192.31 850.04C3190.65 848.221 3188.36 847.312 3185.46 847.312C3183.5 847.312 3181.77 847.733 3180.27 848.574C3178.8 849.415 3177.64 850.642 3176.8 852.255C3175.98 853.846 3175.56 855.767 3175.53 858.017ZM3242.81 888.29V877.653L3267.67 854.642C3269.78 852.596 3271.55 850.755 3272.98 849.119C3274.44 847.483 3275.54 845.88 3276.29 844.312C3277.04 842.721 3277.42 841.005 3277.42 839.165C3277.42 837.119 3276.95 835.358 3276.02 833.88C3275.09 832.38 3273.81 831.233 3272.2 830.437C3270.59 829.619 3268.76 829.21 3266.71 829.21C3264.57 829.21 3262.71 829.642 3261.12 830.505C3259.53 831.369 3258.3 832.608 3257.44 834.221C3256.57 835.835 3256.14 837.755 3256.14 839.983H3242.13C3242.13 835.415 3243.17 831.449 3245.23 828.085C3247.3 824.721 3250.2 822.119 3253.93 820.278C3257.65 818.437 3261.95 817.517 3266.81 817.517C3271.81 817.517 3276.17 818.403 3279.87 820.176C3283.6 821.926 3286.5 824.358 3288.56 827.471C3290.63 830.585 3291.67 834.153 3291.67 838.176C3291.67 840.812 3291.14 843.415 3290.1 845.983C3289.07 848.551 3287.25 851.403 3284.61 854.54C3281.97 857.653 3278.26 861.392 3273.46 865.755L3263.27 875.744V876.221H3292.59V888.29H3242.81Z" fill="#8B8B8B"/>
<path d="M2186.15 875.341C2190.05 879.246 2196.38 879.246 2200.29 875.341L2263.93 811.701C2267.83 807.796 2267.83 801.464 2263.93 797.559C2260.02 793.654 2253.69 793.654 2249.79 797.559L2193.22 854.128L2136.65 797.559C2132.74 793.654 2126.41 793.654 2122.51 797.559C2118.6 801.464 2118.6 807.796 2122.51 811.701L2186.15 875.341ZM2183.22 312.587L2183.22 868.27L2203.22 868.27L2203.22 312.587L2183.22 312.587Z" fill="#C82D2D"/>
<path d="M2908.12 319.658C2912.03 315.753 2912.03 309.421 2908.12 305.516L2844.48 241.876C2840.58 237.971 2834.25 237.971 2830.34 241.876C2826.44 245.782 2826.44 252.113 2830.34 256.019L2886.91 312.587L2830.34 369.156C2826.44 373.061 2826.44 379.393 2830.34 383.298C2834.25 387.203 2840.58 387.203 2844.48 383.298L2908.12 319.658ZM2193.22 322.587H2901.05V302.587H2193.22V322.587Z" fill="#C82D2D"/>
<path d="M2237.36 411.903C2237.36 403.358 2238.48 395.494 2240.73 388.312C2242.98 381.131 2246.26 374.506 2250.58 368.438H2259.92C2258.24 370.688 2256.67 373.449 2255.22 376.722C2253.76 379.994 2252.49 383.585 2251.4 387.494C2250.31 391.381 2249.46 395.415 2248.84 399.597C2248.23 403.756 2247.92 407.858 2247.92 411.903C2247.92 417.312 2248.46 422.79 2249.53 428.335C2250.59 433.881 2252.04 439.028 2253.86 443.778C2255.67 448.528 2257.7 452.403 2259.92 455.403H2250.58C2246.26 449.335 2242.98 442.71 2240.73 435.528C2238.48 428.347 2237.36 420.472 2237.36 411.903ZM2294.84 447.972C2289.45 447.949 2284.85 446.528 2281.03 443.71C2277.22 440.892 2274.3 436.79 2272.27 431.403C2270.25 426.017 2269.24 419.528 2269.24 411.938C2269.24 404.369 2270.25 397.903 2272.27 392.54C2274.32 387.176 2277.25 383.085 2281.07 380.267C2284.91 377.449 2289.5 376.04 2294.84 376.04C2300.18 376.04 2304.76 377.46 2308.58 380.301C2312.4 383.119 2315.32 387.21 2317.34 392.574C2319.39 397.915 2320.41 404.369 2320.41 411.938C2320.41 419.551 2319.4 426.051 2317.38 431.438C2315.35 436.801 2312.43 440.903 2308.61 443.744C2304.8 446.563 2300.2 447.972 2294.84 447.972ZM2294.84 438.869C2299.57 438.869 2303.26 436.562 2305.92 431.949C2308.6 427.335 2309.94 420.665 2309.94 411.938C2309.94 406.142 2309.33 401.244 2308.1 397.244C2306.9 393.222 2305.16 390.176 2302.89 388.108C2300.64 386.017 2297.95 384.972 2294.84 384.972C2290.14 384.972 2286.44 387.29 2283.76 391.926C2281.08 396.562 2279.73 403.233 2279.7 411.938C2279.7 417.756 2280.31 422.676 2281.51 426.699C2282.74 430.699 2284.48 433.733 2286.73 435.801C2288.98 437.847 2291.68 438.869 2294.84 438.869ZM2343.37 437.267L2342.86 440.983C2342.52 443.71 2341.94 446.551 2341.12 449.506C2340.32 452.483 2339.49 455.244 2338.63 457.79C2337.79 460.335 2337.1 462.358 2336.55 463.858H2329.32C2329.62 462.449 2330.03 460.54 2330.55 458.131C2331.07 455.744 2331.59 453.074 2332.09 450.119C2332.59 447.165 2332.96 444.153 2333.21 441.085L2333.55 437.267H2343.37ZM2406.22 447.972C2400.83 447.949 2396.23 446.528 2392.41 443.71C2388.59 440.892 2385.67 436.79 2383.65 431.403C2381.63 426.017 2380.61 419.528 2380.61 411.938C2380.61 404.369 2381.63 397.903 2383.65 392.54C2385.69 387.176 2388.63 383.085 2392.44 380.267C2396.28 377.449 2400.88 376.04 2406.22 376.04C2411.56 376.04 2416.14 377.46 2419.95 380.301C2423.77 383.119 2426.69 387.21 2428.72 392.574C2430.76 397.915 2431.78 404.369 2431.78 411.938C2431.78 419.551 2430.77 426.051 2428.75 431.438C2426.73 436.801 2423.81 440.903 2419.99 443.744C2416.17 446.563 2411.58 447.972 2406.22 447.972ZM2406.22 438.869C2410.94 438.869 2414.64 436.562 2417.3 431.949C2419.98 427.335 2421.32 420.665 2421.32 411.938C2421.32 406.142 2420.7 401.244 2419.48 397.244C2418.27 393.222 2416.53 390.176 2414.26 388.108C2412.01 386.017 2409.33 384.972 2406.22 384.972C2401.51 384.972 2397.82 387.29 2395.14 391.926C2392.45 396.562 2391.1 403.233 2391.08 411.938C2391.08 417.756 2391.68 422.676 2392.89 426.699C2394.11 430.699 2395.85 433.733 2398.1 435.801C2400.35 437.847 2403.06 438.869 2406.22 438.869ZM2463.62 411.903C2463.62 420.472 2462.49 428.347 2460.24 435.528C2457.99 442.71 2454.71 449.335 2450.39 455.403H2441.05C2442.73 453.153 2444.3 450.392 2445.75 447.119C2447.21 443.847 2448.48 440.267 2449.57 436.381C2450.66 432.472 2451.51 428.426 2452.13 424.244C2452.74 420.062 2453.05 415.949 2453.05 411.903C2453.05 406.517 2452.51 401.051 2451.45 395.506C2450.38 389.96 2448.93 384.812 2447.12 380.062C2445.3 375.312 2443.28 371.438 2441.05 368.438H2450.39C2454.71 374.506 2457.99 381.131 2460.24 388.312C2462.49 395.494 2463.62 403.358 2463.62 411.903Z" fill="black"/>
<path d="M3005.5 697.321V625.321H3015.46V633.81H3016.31C3016.9 632.719 3017.75 631.457 3018.87 630.025C3019.98 628.594 3021.53 627.344 3023.5 626.275C3025.48 625.185 3028.1 624.639 3031.35 624.639C3035.57 624.639 3039.35 625.707 3042.66 627.844C3045.98 629.98 3048.58 633.06 3050.47 637.082C3052.38 641.105 3053.33 645.946 3053.33 651.605C3053.33 657.264 3052.39 662.116 3050.5 666.162C3048.62 670.185 3046.03 673.287 3042.73 675.469C3039.44 677.628 3035.67 678.707 3031.45 678.707C3028.27 678.707 3025.66 678.173 3023.64 677.105C3021.64 676.037 3020.07 674.787 3018.94 673.355C3017.8 671.923 3016.92 670.65 3016.31 669.537H3015.7V697.321H3005.5ZM3015.49 651.503C3015.49 655.185 3016.03 658.412 3017.1 661.185C3018.16 663.957 3019.71 666.128 3021.73 667.696C3023.75 669.241 3026.23 670.014 3029.16 670.014C3032.21 670.014 3034.75 669.207 3036.8 667.594C3038.85 665.957 3040.39 663.741 3041.44 660.946C3042.5 658.15 3043.04 655.003 3043.04 651.503C3043.04 648.048 3042.52 644.946 3041.47 642.196C3040.45 639.446 3038.9 637.275 3036.83 635.685C3034.79 634.094 3032.23 633.298 3029.16 633.298C3026.21 633.298 3023.71 634.06 3021.66 635.582C3019.64 637.105 3018.11 639.23 3017.06 641.957C3016.02 644.685 3015.49 647.866 3015.49 651.503ZM3086.81 678.741C3081.9 678.741 3077.62 677.616 3073.96 675.366C3070.3 673.116 3067.46 669.969 3065.44 665.923C3063.41 661.878 3062.4 657.15 3062.4 651.741C3062.4 646.31 3063.41 641.56 3065.44 637.491C3067.46 633.423 3070.3 630.264 3073.96 628.014C3077.62 625.764 3081.9 624.639 3086.81 624.639C3091.72 624.639 3096 625.764 3099.66 628.014C3103.32 630.264 3106.16 633.423 3108.19 637.491C3110.21 641.56 3111.22 646.31 3111.22 651.741C3111.22 657.15 3110.21 661.878 3108.19 665.923C3106.16 669.969 3103.32 673.116 3099.66 675.366C3096 677.616 3091.72 678.741 3086.81 678.741ZM3086.85 670.185C3090.03 670.185 3092.66 669.344 3094.75 667.662C3096.85 665.98 3098.39 663.741 3099.39 660.946C3100.41 658.15 3100.92 655.071 3100.92 651.707C3100.92 648.366 3100.41 645.298 3099.39 642.503C3098.39 639.685 3096.85 637.423 3094.75 635.719C3092.66 634.014 3090.03 633.162 3086.85 633.162C3083.64 633.162 3080.98 634.014 3078.87 635.719C3076.78 637.423 3075.22 639.685 3074.2 642.503C3073.2 645.298 3072.7 648.366 3072.7 651.707C3072.7 655.071 3073.2 658.15 3074.2 660.946C3075.22 663.741 3076.78 665.98 3078.87 667.662C3080.98 669.344 3083.64 670.185 3086.85 670.185ZM3122.6 677.685V625.321H3132.79V677.685H3122.6ZM3127.75 617.241C3125.97 617.241 3124.45 616.65 3123.18 615.469C3121.93 614.264 3121.3 612.832 3121.3 611.173C3121.3 609.491 3121.93 608.06 3123.18 606.878C3124.45 605.673 3125.97 605.071 3127.75 605.071C3129.52 605.071 3131.03 605.673 3132.28 606.878C3133.55 608.06 3134.19 609.491 3134.19 611.173C3134.19 612.832 3133.55 614.264 3132.28 615.469C3131.03 616.65 3129.52 617.241 3127.75 617.241ZM3156.7 646.594V677.685H3146.5V625.321H3156.29V633.844H3156.94C3158.14 631.071 3160.03 628.844 3162.6 627.162C3165.19 625.48 3168.45 624.639 3172.38 624.639C3175.95 624.639 3179.07 625.389 3181.75 626.889C3184.44 628.366 3186.52 630.571 3187.99 633.503C3189.47 636.435 3190.21 640.06 3190.21 644.378V677.685H3180.02V645.605C3180.02 641.81 3179.03 638.844 3177.05 636.707C3175.07 634.548 3172.36 633.469 3168.9 633.469C3166.54 633.469 3164.44 633.98 3162.6 635.003C3160.78 636.025 3159.33 637.525 3158.27 639.503C3157.22 641.457 3156.7 643.821 3156.7 646.594ZM3228.32 625.321V633.503H3199.72V625.321H3228.32ZM3207.39 612.775H3217.58V662.31C3217.58 664.287 3217.88 665.775 3218.47 666.775C3219.06 667.753 3219.82 668.423 3220.75 668.787C3221.71 669.128 3222.74 669.298 3223.86 669.298C3224.67 669.298 3225.39 669.241 3226 669.128C3226.62 669.014 3227.1 668.923 3227.44 668.855L3229.28 677.275C3228.69 677.503 3227.85 677.73 3226.75 677.957C3225.66 678.207 3224.3 678.344 3222.66 678.366C3219.98 678.412 3217.48 677.935 3215.16 676.935C3212.85 675.935 3210.97 674.389 3209.54 672.298C3208.11 670.207 3207.39 667.582 3207.39 664.423V612.775ZM3277 677.685V686.344H3232.64V677.685H3277ZM3305.81 678.741C3300.9 678.741 3296.62 677.616 3292.96 675.366C3289.3 673.116 3286.46 669.969 3284.44 665.923C3282.41 661.878 3281.4 657.15 3281.4 651.741C3281.4 646.31 3282.41 641.56 3284.44 637.491C3286.46 633.423 3289.3 630.264 3292.96 628.014C3296.62 625.764 3300.9 624.639 3305.81 624.639C3310.72 624.639 3315 625.764 3318.66 628.014C3322.32 630.264 3325.16 633.423 3327.19 637.491C3329.21 641.56 3330.22 646.31 3330.22 651.741C3330.22 657.15 3329.21 661.878 3327.19 665.923C3325.16 669.969 3322.32 673.116 3318.66 675.366C3315 677.616 3310.72 678.741 3305.81 678.741ZM3305.85 670.185C3309.03 670.185 3311.66 669.344 3313.75 667.662C3315.85 665.98 3317.39 663.741 3318.39 660.946C3319.41 658.15 3319.92 655.071 3319.92 651.707C3319.92 648.366 3319.41 645.298 3318.39 642.503C3317.39 639.685 3315.85 637.423 3313.75 635.719C3311.66 634.014 3309.03 633.162 3305.85 633.162C3302.64 633.162 3299.98 634.014 3297.87 635.719C3295.78 637.423 3294.22 639.685 3293.2 642.503C3292.2 645.298 3291.7 648.366 3291.7 651.707C3291.7 655.071 3292.2 658.15 3293.2 660.946C3294.22 663.741 3295.78 665.98 3297.87 667.662C3299.98 669.344 3302.64 670.185 3305.85 670.185ZM3366.52 625.321V633.503H3336.93V625.321H3366.52ZM3345.04 677.685V619.253C3345.04 615.98 3345.76 613.264 3347.19 611.105C3348.62 608.923 3350.52 607.298 3352.88 606.23C3355.25 605.139 3357.81 604.594 3360.59 604.594C3362.63 604.594 3364.38 604.764 3365.84 605.105C3367.29 605.423 3368.37 605.719 3369.08 605.991L3366.69 614.241C3366.21 614.105 3365.6 613.946 3364.85 613.764C3364.1 613.56 3363.19 613.457 3362.12 613.457C3359.64 613.457 3357.87 614.071 3356.8 615.298C3355.76 616.525 3355.23 618.298 3355.23 620.616V677.685H3345.04ZM3413.03 677.685V686.344H3368.67V677.685H3413.03ZM3424.19 677.685V625.321H3434.04V633.639H3434.59C3435.54 630.821 3437.23 628.605 3439.63 626.991C3442.07 625.355 3444.82 624.537 3447.88 624.537C3448.52 624.537 3449.27 624.56 3450.13 624.605C3451.02 624.65 3451.71 624.707 3452.21 624.775V634.525C3451.81 634.412 3451.08 634.287 3450.03 634.15C3448.99 633.991 3447.94 633.912 3446.9 633.912C3444.49 633.912 3442.34 634.423 3440.45 635.446C3438.59 636.446 3437.11 637.844 3436.02 639.639C3434.93 641.412 3434.38 643.435 3434.38 645.707V677.685H3424.19ZM3481.73 678.741C3476.57 678.741 3472.13 677.639 3468.4 675.435C3464.69 673.207 3461.83 670.082 3459.81 666.06C3457.81 662.014 3456.81 657.275 3456.81 651.844C3456.81 646.48 3457.81 641.753 3459.81 637.662C3461.83 633.571 3464.65 630.378 3468.26 628.082C3471.9 625.787 3476.15 624.639 3481.01 624.639C3483.97 624.639 3486.83 625.128 3489.6 626.105C3492.38 627.082 3494.86 628.616 3497.07 630.707C3499.27 632.798 3501.01 635.514 3502.29 638.855C3503.56 642.173 3504.19 646.207 3504.19 650.957V654.571H3462.57V646.935H3494.21C3494.21 644.253 3493.66 641.878 3492.57 639.81C3491.48 637.719 3489.94 636.071 3487.97 634.866C3486.01 633.662 3483.72 633.06 3481.08 633.06C3478.22 633.06 3475.72 633.764 3473.58 635.173C3471.47 636.56 3469.83 638.378 3468.67 640.628C3467.54 642.855 3466.97 645.275 3466.97 647.889V653.855C3466.97 657.355 3467.58 660.332 3468.81 662.787C3470.06 665.241 3471.8 667.116 3474.02 668.412C3476.25 669.685 3478.85 670.321 3481.83 670.321C3483.76 670.321 3485.52 670.048 3487.11 669.503C3488.71 668.935 3490.08 668.094 3491.24 666.98C3492.4 665.866 3493.29 664.491 3493.9 662.855L3503.55 664.594C3502.77 667.435 3501.39 669.923 3499.39 672.06C3497.41 674.173 3494.92 675.821 3491.92 677.003C3488.94 678.162 3485.55 678.741 3481.73 678.741ZM3537.46 698.412C3533.3 698.412 3529.72 697.866 3526.72 696.775C3523.74 695.685 3521.31 694.241 3519.42 692.446C3517.54 690.65 3516.13 688.685 3515.2 686.548L3523.96 682.935C3524.57 683.935 3525.39 684.991 3526.41 686.105C3527.46 687.241 3528.87 688.207 3530.64 689.003C3532.44 689.798 3534.74 690.196 3537.56 690.196C3541.42 690.196 3544.62 689.253 3547.14 687.366C3549.66 685.503 3550.92 682.525 3550.92 678.435V668.139H3550.28C3549.66 669.253 3548.78 670.491 3547.62 671.855C3546.48 673.219 3544.91 674.4 3542.91 675.4C3540.91 676.4 3538.31 676.9 3535.11 676.9C3530.97 676.9 3527.24 675.935 3523.92 674.003C3520.63 672.048 3518.02 669.173 3516.08 665.378C3514.17 661.56 3513.22 656.866 3513.22 651.298C3513.22 645.73 3514.16 640.957 3516.05 636.98C3517.96 633.003 3520.57 629.957 3523.89 627.844C3527.21 625.707 3530.97 624.639 3535.17 624.639C3538.42 624.639 3541.05 625.185 3543.05 626.275C3545.05 627.344 3546.61 628.594 3547.72 630.025C3548.86 631.457 3549.73 632.719 3550.35 633.81H3551.1V625.321H3561.08V678.844C3561.08 683.344 3560.04 687.037 3557.95 689.923C3555.86 692.81 3553.03 694.946 3549.46 696.332C3545.91 697.719 3541.91 698.412 3537.46 698.412ZM3537.36 668.446C3540.29 668.446 3542.77 667.764 3544.79 666.4C3546.83 665.014 3548.38 663.037 3549.42 660.469C3550.49 657.878 3551.03 654.775 3551.03 651.162C3551.03 647.639 3550.5 644.537 3549.46 641.855C3548.41 639.173 3546.88 637.082 3544.86 635.582C3542.83 634.06 3540.33 633.298 3537.36 633.298C3534.29 633.298 3531.73 634.094 3529.69 635.685C3527.64 637.253 3526.1 639.389 3525.05 642.094C3524.03 644.798 3523.52 647.821 3523.52 651.162C3523.52 654.594 3524.04 657.605 3525.08 660.196C3526.13 662.787 3527.67 664.81 3529.72 666.264C3531.79 667.719 3534.33 668.446 3537.36 668.446ZM3589.99 678.844C3586.67 678.844 3583.67 678.23 3580.99 677.003C3578.31 675.753 3576.19 673.946 3574.62 671.582C3573.07 669.219 3572.3 666.321 3572.3 662.889C3572.3 659.935 3572.87 657.503 3574 655.594C3575.14 653.685 3576.67 652.173 3578.61 651.06C3580.54 649.946 3582.7 649.105 3585.08 648.537C3587.47 647.969 3589.9 647.537 3592.38 647.241C3595.52 646.878 3598.06 646.582 3600.02 646.355C3601.97 646.105 3603.39 645.707 3604.28 645.162C3605.16 644.616 3605.61 643.73 3605.61 642.503V642.264C3605.61 639.287 3604.77 636.98 3603.08 635.344C3601.42 633.707 3598.95 632.889 3595.65 632.889C3592.22 632.889 3589.52 633.65 3587.54 635.173C3585.58 636.673 3584.23 638.344 3583.48 640.185L3573.9 638.003C3575.04 634.821 3576.7 632.253 3578.88 630.298C3581.08 628.321 3583.62 626.889 3586.48 626.003C3589.35 625.094 3592.36 624.639 3595.52 624.639C3597.61 624.639 3599.82 624.889 3602.16 625.389C3604.53 625.866 3606.73 626.753 3608.78 628.048C3610.85 629.344 3612.54 631.196 3613.86 633.605C3615.17 635.991 3615.83 639.094 3615.83 642.912V677.685H3605.88V670.525H3605.47C3604.81 671.844 3603.82 673.139 3602.5 674.412C3601.19 675.685 3599.49 676.741 3597.42 677.582C3595.36 678.423 3592.88 678.844 3589.99 678.844ZM3592.21 670.662C3595.03 670.662 3597.44 670.105 3599.44 668.991C3601.46 667.878 3602.99 666.423 3604.04 664.628C3605.11 662.81 3605.64 660.866 3605.64 658.798V652.048C3605.28 652.412 3604.57 652.753 3603.53 653.071C3602.5 653.366 3601.33 653.628 3600.02 653.855C3598.7 654.06 3597.41 654.253 3596.16 654.435C3594.91 654.594 3593.87 654.73 3593.03 654.844C3591.05 655.094 3589.24 655.514 3587.61 656.105C3585.99 656.696 3584.7 657.548 3583.72 658.662C3582.77 659.753 3582.29 661.207 3582.29 663.025C3582.29 665.548 3583.22 667.457 3585.08 668.753C3586.95 670.025 3589.32 670.662 3592.21 670.662ZM3629.41 677.685V625.321H3639.26V633.639H3639.81C3640.76 630.821 3642.44 628.605 3644.85 626.991C3647.29 625.355 3650.04 624.537 3653.1 624.537C3653.74 624.537 3654.49 624.56 3655.35 624.605C3656.24 624.65 3656.93 624.707 3657.43 624.775V634.525C3657.02 634.412 3656.3 634.287 3655.25 634.15C3654.21 633.991 3653.16 633.912 3652.11 633.912C3649.71 633.912 3647.56 634.423 3645.67 635.446C3643.81 636.446 3642.33 637.844 3641.24 639.639C3640.15 641.412 3639.6 643.435 3639.6 645.707V677.685H3629.41ZM3683.98 678.707C3679.75 678.707 3675.98 677.628 3672.66 675.469C3669.37 673.287 3666.78 670.185 3664.89 666.162C3663.03 662.116 3662.1 657.264 3662.1 651.605C3662.1 645.946 3663.04 641.105 3664.92 637.082C3666.83 633.06 3669.45 629.98 3672.77 627.844C3676.08 625.707 3679.85 624.639 3684.05 624.639C3687.3 624.639 3689.91 625.185 3691.89 626.275C3693.89 627.344 3695.44 628.594 3696.53 630.025C3697.64 631.457 3698.5 632.719 3699.12 633.81H3699.73V607.866H3709.92V677.685H3699.97V669.537H3699.12C3698.5 670.65 3697.62 671.923 3696.46 673.355C3695.32 674.787 3693.75 676.037 3691.75 677.105C3689.75 678.173 3687.16 678.707 3683.98 678.707ZM3686.23 670.014C3689.16 670.014 3691.64 669.241 3693.66 667.696C3695.71 666.128 3697.25 663.957 3698.3 661.185C3699.37 658.412 3699.9 655.185 3699.9 651.503C3699.9 647.866 3699.38 644.685 3698.33 641.957C3697.29 639.23 3695.75 637.105 3693.73 635.582C3691.71 634.06 3689.21 633.298 3686.23 633.298C3683.16 633.298 3680.61 634.094 3678.56 635.685C3676.52 637.275 3674.97 639.446 3673.92 642.196C3672.9 644.946 3672.39 648.048 3672.39 651.503C3672.39 655.003 3672.91 658.15 3673.96 660.946C3675 663.741 3676.55 665.957 3678.6 667.594C3680.66 669.207 3683.21 670.014 3686.23 670.014Z" fill="black"/>
<line x1="2976.25" y1="625.406" x2="2193.22" y2="625.406" stroke="black" stroke-opacity="0.66" stroke-width="19" stroke-dasharray="40 40"/>
<line x1="2966.75" y1="615.906" x2="2966.75" y2="327.245" stroke="black" stroke-opacity="0.66" stroke-width="19" stroke-dasharray="40 40"/>
<circle cx="2966.87" cy="624.436" r="31.2771" fill="#7B61FF" stroke="black"/>
</svg>
