<?xml version="1.0" encoding="UTF-8" standalone="no"?>
<svg
   width="136"
   zoomAndPan="magnify"
   viewBox="0 0 102 102"
   height="136"
   preserveAspectRatio="xMidYMid"
   version="1.0"
   id="svg391"
   sodipodi:docname="BeamIconDark.svg"
   inkscape:version="1.2.2 (732a01da63, 2022-12-09)"
   xmlns:inkscape="http://www.inkscape.org/namespaces/inkscape"
   xmlns:sodipodi="http://sodipodi.sourceforge.net/DTD/sodipodi-0.dtd"
   xmlns="http://www.w3.org/2000/svg"
   xmlns:svg="http://www.w3.org/2000/svg">
  <sodipodi:namedview
     id="namedview393"
     pagecolor="#ffffff"
     bordercolor="#000000"
     borderopacity="0.25"
     inkscape:showpageshadow="2"
     inkscape:pageopacity="0.0"
     inkscape:pagecheckerboard="0"
     inkscape:deskcolor="#d1d1d1"
     showgrid="false"
     inkscape:zoom="1.475"
     inkscape:cx="164.40678"
     inkscape:cy="67.79661"
     inkscape:window-width="1920"
     inkscape:window-height="1129"
     inkscape:window-x="1912"
     inkscape:window-y="-1"
     inkscape:window-maximized="1"
     inkscape:current-layer="svg391" />
  <defs
     id="defs265">
    <g
       id="g260" />
    <clipPath
       id="eb7530ea21">
      <path
         d="M 34.429688,9.132812 H 123 V 111.13281 H 34.429688 Z m 0,0"
         clip-rule="nonzero"
         id="path262" />
    </clipPath>
  </defs>
  <g
     clip-path="url(#eb7530ea21)"
     id="g269"
     transform="translate(-27.539064,-9.1328109)">
    <path
       fill="#ffffff"
       d="m 78.539062,9.132812 -44.109374,25.5 v 51 L 78.539062,111.13281 122.64844,85.632812 v -50.96875 z m 0,90.511719 c -21.777343,0 -39.445312,-17.695312 -39.445312,-39.511719 0,-21.8125 17.667969,-39.511718 39.445312,-39.511718 21.781248,0 39.449218,17.699218 39.449218,39.511718 -0.0312,21.847657 -17.66797,39.511719 -39.449218,39.511719 z m 0,0"
       fill-opacity="1"
       fill-rule="nonzero"
       id="path267" />
  </g>
  <path
     fill="#ffffff"
     d="m 51.001954,16.24414 c -19.17578,0 -34.699219,15.550781 -34.699219,34.757813 0,19.203125 15.523439,34.753906 34.699219,34.753906 19.171875,0 34.695311,-15.550781 34.695311,-34.753906 0,-19.207032 -15.55078,-34.757813 -34.695311,-34.757813 z m -16.539062,6.472656 c 4.867187,-2.84375 10.484374,-4.5 16.539062,-4.5 4.546875,0 8.109375,0.613282 12.046875,2.292969 -26.992187,3.917969 -31.222655,25.9375 -31.281249,26.226563 -0.894532,-5.597657 -1.332032,-13.578125 2.695312,-24.019532 z m 14.218749,15.984375 c 0.753906,-0.144531 1.566406,-0.234375 2.347656,-0.234375 6.980469,0 12.628907,5.660157 12.628907,12.648438 0,6.992187 -5.648438,12.648437 -12.628907,12.648437 -6.980468,0 -12.628906,-5.65625 -12.628906,-12.648437 0,-0.78125 0.08984,-1.507813 0.203125,-2.261719 1.304688,1.390625 3.15625,2.261719 5.214844,2.261719 3.96875,0 7.152344,-3.21875 7.152344,-7.164063 0.03125,-2.058593 -0.867188,-3.945312 -2.289063,-5.25 z M 29.943361,25.908202 C 23.08008,47.517578 34.115236,62.169921 36.779297,64.662109 31.333985,62.458984 24.904298,59.095703 18.302735,50.478515 18.47461,40.15039 22.81836,32.173828 29.943361,25.908202 Z m -11.4375,29.355469 c 9.410155,15.726563 33.015624,15.929688 36.058593,15.144532 -0.4375,0.347656 -14.046875,6.933593 -21.984374,7.660156 C 25.310548,72.904296 20.154298,65.65039 18.505861,55.263671 Z m 32.496093,28.488282 c -4.722657,0 -9.210938,-1.015625 -13.265625,-2.8125 29.105468,-8.210938 32.207031,-24.167969 32.378906,-24.71875 -0.261719,7.980468 -1.449219,15.8125 -5.097656,24.398437 -4.402344,2.175781 -8.746094,3.132813 -14.015625,3.132813 z m 19,-6.121094 c 8.398441,-24.832031 0.113281,-34.578125 -4.984375,-40.496094 1.21875,0.460938 12.222656,3.625 18.652346,14.996094 -0.34766,10.675781 -5.44531,19.816406 -13.667971,25.5 z M 44.134766,32.490234 c 0.378907,-0.316406 1.304688,-1.1875 1.738281,-1.535156 3.941407,-3.074219 10.773438,-6.789063 21.753907,-8.152344 8.687501,5.164062 14.769531,14.882812 15.812501,23.960937 C 74.806645,33.099609 55.314454,29.009765 44.134766,32.490234 Z m 0,0"
     fill-opacity="1"
     fill-rule="nonzero"
     id="path271" />
  <g
     fill="#ffffff"
     fill-opacity="1"
     id="g301"
     transform="translate(-34.429688,-9.132812)">
    <g
       transform="translate(200.14653,104.3982)"
       id="g299">
      <g
         id="g297" />
    </g>
  </g>
</svg>
